<svg width="1190" height="386" viewBox="0 0 1190 386" fill="none" xmlns="http://www.w3.org/2000/svg">
<g filter="url(#filter0_d_20_12)">
<g clip-path="url(#clip0_20_12)">
<rect x="4" width="1182" height="378" rx="20" fill="#F6FA70"/>
<g filter="url(#filter1_d_20_12)">
<path d="M26.9123 92.2071C52.7927 44.0439 112.817 25.9801 160.98 51.8605L680.295 330.912C728.458 356.793 746.522 416.817 720.642 464.98L441.59 984.295C415.709 1032.46 355.685 1050.52 307.522 1024.64L-211.793 745.59C-259.956 719.709 -278.02 659.685 -252.14 611.522L26.9123 92.2071Z" fill="#FF0060"/>
</g>
<rect width="816.401" height="799.52" rx="99" transform="matrix(-0.940991 0.338431 0.338431 0.940991 1173.23 -160)" fill="#002A48"/>
</g>
</g>
<defs>
<filter id="filter0_d_20_12" x="0" y="0" width="1190" height="386" filterUnits="userSpaceOnUse" color-interpolation-filters="sRGB">
<feFlood flood-opacity="0" result="BackgroundImageFix"/>
<feColorMatrix in="SourceAlpha" type="matrix" values="0 0 0 0 0 0 0 0 0 0 0 0 0 0 0 0 0 0 127 0" result="hardAlpha"/>
<feOffset dy="4"/>
<feGaussianBlur stdDeviation="2"/>
<feComposite in2="hardAlpha" operator="out"/>
<feColorMatrix type="matrix" values="0 0 0 0 0 0 0 0 0 0 0 0 0 0 0 0 0 0 0.25 0"/>
<feBlend mode="normal" in2="BackgroundImageFix" result="effect1_dropShadow_20_12"/>
<feBlend mode="normal" in="SourceGraphic" in2="effect1_dropShadow_20_12" result="shape"/>
</filter>
<filter id="filter1_d_20_12" x="-267.952" y="40.0483" width="1004.41" height="1004.41" filterUnits="userSpaceOnUse" color-interpolation-filters="sRGB">
<feFlood flood-opacity="0" result="BackgroundImageFix"/>
<feColorMatrix in="SourceAlpha" type="matrix" values="0 0 0 0 0 0 0 0 0 0 0 0 0 0 0 0 0 0 127 0" result="hardAlpha"/>
<feOffset dy="4"/>
<feGaussianBlur stdDeviation="2"/>
<feComposite in2="hardAlpha" operator="out"/>
<feColorMatrix type="matrix" values="0 0 0 0 0 0 0 0 0 0 0 0 0 0 0 0 0 0 0.25 0"/>
<feBlend mode="normal" in2="BackgroundImageFix" result="effect1_dropShadow_20_12"/>
<feBlend mode="normal" in="SourceGraphic" in2="effect1_dropShadow_20_12" result="shape"/>
</filter>
<clipPath id="clip0_20_12">
<rect x="4" width="1182" height="378" rx="20" fill="white"/>
</clipPath>
</defs>
</svg>
