<svg width="78" height="73" viewBox="0 0 78 73" fill="none" xmlns="http://www.w3.org/2000/svg">
<mask id="path-1-outside-1_94_4284" maskUnits="userSpaceOnUse" x="-0.802734" y="0.40683" width="79" height="72" fill="black">
<rect fill="white" x="-0.802734" y="0.40683" width="79" height="72"/>
<path d="M41.2416 17.7196V17.8079C41.2404 19.535 41.5392 21.2493 42.1249 22.8754L42.0905 22.77C42.6598 24.3546 43.6272 25.7685 44.9009 26.8776L44.9124 26.8862C46.1197 27.9657 47.7257 28.6237 49.4865 28.6237H49.6242H49.6185C51.9416 28.6105 54.1664 27.6908 55.8129 26.0629C57.6117 24.4229 59.0112 22.3977 59.9053 20.1409L59.9426 20.0326C60.8092 17.8997 61.2654 15.6243 61.2876 13.3244V13.2247C61.2876 11.4472 60.975 9.74094 60.4043 8.15716L60.4387 8.26256C59.8693 6.67799 58.9019 5.26412 57.6282 4.155L57.6168 4.14645C56.3208 2.98826 54.6277 2.36655 52.8849 2.40886H52.8935C50.5697 2.41872 48.3437 3.33897 46.699 4.96967C44.9182 6.60961 43.5305 8.62555 42.6382 10.8689L42.6009 10.9772C41.7721 12.9712 41.2817 15.287 41.2559 17.7111V17.7196H41.2416ZM56.57 39.2202L56.5671 39.4595C56.5637 41.6015 57.2301 43.6918 58.4742 45.4414L58.4513 45.4072C59.0186 46.219 59.7753 46.8824 60.6567 47.3407C61.5381 47.799 62.5181 48.0387 63.513 48.0392L63.7969 48.0335H63.7825C66.1331 48.0079 68.3925 47.126 70.1319 45.5553L70.1233 45.5639C71.9736 43.9896 73.4703 42.0467 74.5162 39.861C75.562 37.6754 76.1338 35.2958 76.1944 32.8766V32.8538L76.1973 32.6202C76.1973 30.3841 75.4918 28.3104 74.2902 26.6098L74.3131 26.644C73.7229 25.787 72.922 25.0938 71.9866 24.6302C71.0511 24.1666 70.0119 23.9479 68.9675 23.9949H68.9819C66.6313 24.0206 64.3719 24.9024 62.6326 26.4731L62.6412 26.4646C60.7879 28.0481 59.2899 30.0005 58.2441 32.1953C57.1983 34.3901 56.628 36.7785 56.57 39.206V39.2259V39.2202ZM38.9015 38.0182C34.7145 38.2452 30.7046 39.7704 27.436 42.3792L27.4761 42.3479C23.4751 45.1703 20.0277 48.6959 17.304 52.7507L17.2123 52.896C14.7574 56.1719 13.3227 60.0905 13.0855 64.1675L13.0826 64.2245L13.0769 64.4723C13.0769 65.6231 13.3608 66.7113 13.8627 67.6655L13.8455 67.6285C14.327 68.5035 15.079 69.2016 15.9906 69.6196L16.0193 69.631C16.8538 70.0269 17.826 70.3374 18.8412 70.5112L18.91 70.5197C19.9686 70.6856 21.0388 70.7675 22.1105 70.7647H22.3256H22.3141C25.269 70.5704 28.1679 69.8708 30.8831 68.6967L30.7168 68.7622C33.2809 67.6516 36.0147 66.9766 38.804 66.7654L38.8929 66.7597C42.0561 66.9933 44.987 67.6997 47.7114 68.8078L47.5192 68.7394C50.3601 69.8727 53.3674 70.5404 56.4238 70.7163L56.5041 70.7191C61.9835 70.7229 64.7232 68.559 64.7232 64.2273C64.599 61.1922 63.7202 58.2348 62.1651 55.6191L62.2139 55.7046C60.5361 52.5705 58.4282 49.683 55.9506 47.1249L55.962 47.1363C53.5404 44.6239 50.771 42.4669 47.7372 40.7299L47.5594 40.6359C44.9683 39.0301 41.9993 38.1256 38.9474 38.0125H38.9129L38.9015 38.0182ZM28.1902 28.6266H28.3221C30.0133 28.6284 31.6452 28.0073 32.902 26.8833L32.8963 26.889C34.1599 25.7963 35.123 24.4024 35.6953 22.8384L35.7182 22.77C36.2872 21.1769 36.5753 19.4983 36.5699 17.8079V17.7139V17.7196C36.5441 15.2841 36.0537 12.9712 35.1791 10.8519L35.2249 10.9772C34.3364 8.69592 32.9381 6.64474 31.1355 4.97822L31.124 4.96967C29.4789 3.34175 27.2545 2.42279 24.9324 2.4117H24.7976C23.0368 2.4117 21.4308 3.07256 20.2177 4.155L20.2235 4.1493C18.9674 5.24028 17.998 6.62466 17.4245 8.19989L17.4015 8.26825C16.8538 9.75518 16.5383 11.4728 16.5383 13.2617V13.3187V13.3158C16.5632 15.6642 17.0351 17.9867 17.9292 20.1608L17.8833 20.0355C18.7727 22.3292 20.1818 24.3887 22.0015 26.0544L22.013 26.0658C23.6604 27.6895 25.8837 28.606 28.2046 28.6181H28.2074L28.1902 28.6266ZM8.83254 24.0006L8.5687 23.9949C6.47234 23.9949 4.62261 25.0375 3.51564 26.6298L3.50129 26.6497C2.26926 28.4029 1.61134 30.4907 1.61715 32.6288L1.62002 32.8737V32.8623C1.67649 35.2801 2.24413 37.659 3.28609 39.8447C4.32806 42.0304 5.82106 43.9741 7.66822 45.5496L7.69115 45.5696C9.42784 47.1344 11.6815 48.0129 14.0261 48.0392H14.0319C15.0675 48.0855 16.0981 47.8707 17.0277 47.415C17.9573 46.9593 18.7558 46.2774 19.3488 45.4328L19.3631 45.4129C20.6442 43.6011 21.3039 41.4277 21.2444 39.2145V39.2259C21.1895 36.7997 20.6228 34.4119 19.581 32.2167C18.5393 30.0215 17.0455 28.0677 15.1962 26.4817L15.1733 26.4617C13.4385 24.9018 11.1896 24.0255 8.84975 23.9978H8.84402L8.83254 24.0006Z"/>
</mask>
<path d="M41.2416 17.7196V17.8079C41.2404 19.535 41.5392 21.2493 42.1249 22.8754L42.0905 22.77C42.6598 24.3546 43.6272 25.7685 44.9009 26.8776L44.9124 26.8862C46.1197 27.9657 47.7257 28.6237 49.4865 28.6237H49.6242H49.6185C51.9416 28.6105 54.1664 27.6908 55.8129 26.0629C57.6117 24.4229 59.0112 22.3977 59.9053 20.1409L59.9426 20.0326C60.8092 17.8997 61.2654 15.6243 61.2876 13.3244V13.2247C61.2876 11.4472 60.975 9.74094 60.4043 8.15716L60.4387 8.26256C59.8693 6.67799 58.9019 5.26412 57.6282 4.155L57.6168 4.14645C56.3208 2.98826 54.6277 2.36655 52.8849 2.40886H52.8935C50.5697 2.41872 48.3437 3.33897 46.699 4.96967C44.9182 6.60961 43.5305 8.62555 42.6382 10.8689L42.6009 10.9772C41.7721 12.9712 41.2817 15.287 41.2559 17.7111V17.7196H41.2416ZM56.57 39.2202L56.5671 39.4595C56.5637 41.6015 57.2301 43.6918 58.4742 45.4414L58.4513 45.4072C59.0186 46.219 59.7753 46.8824 60.6567 47.3407C61.5381 47.799 62.5181 48.0387 63.513 48.0392L63.7969 48.0335H63.7825C66.1331 48.0079 68.3925 47.126 70.1319 45.5553L70.1233 45.5639C71.9736 43.9896 73.4703 42.0467 74.5162 39.861C75.562 37.6754 76.1338 35.2958 76.1944 32.8766V32.8538L76.1973 32.6202C76.1973 30.3841 75.4918 28.3104 74.2902 26.6098L74.3131 26.644C73.7229 25.787 72.922 25.0938 71.9866 24.6302C71.0511 24.1666 70.0119 23.9479 68.9675 23.9949H68.9819C66.6313 24.0206 64.3719 24.9024 62.6326 26.4731L62.6412 26.4646C60.7879 28.0481 59.2899 30.0005 58.2441 32.1953C57.1983 34.3901 56.628 36.7785 56.57 39.206V39.2259V39.2202ZM38.9015 38.0182C34.7145 38.2452 30.7046 39.7704 27.436 42.3792L27.4761 42.3479C23.4751 45.1703 20.0277 48.6959 17.304 52.7507L17.2123 52.896C14.7574 56.1719 13.3227 60.0905 13.0855 64.1675L13.0826 64.2245L13.0769 64.4723C13.0769 65.6231 13.3608 66.7113 13.8627 67.6655L13.8455 67.6285C14.327 68.5035 15.079 69.2016 15.9906 69.6196L16.0193 69.631C16.8538 70.0269 17.826 70.3374 18.8412 70.5112L18.91 70.5197C19.9686 70.6856 21.0388 70.7675 22.1105 70.7647H22.3256H22.3141C25.269 70.5704 28.1679 69.8708 30.8831 68.6967L30.7168 68.7622C33.2809 67.6516 36.0147 66.9766 38.804 66.7654L38.8929 66.7597C42.0561 66.9933 44.987 67.6997 47.7114 68.8078L47.5192 68.7394C50.3601 69.8727 53.3674 70.5404 56.4238 70.7163L56.5041 70.7191C61.9835 70.7229 64.7232 68.559 64.7232 64.2273C64.599 61.1922 63.7202 58.2348 62.1651 55.6191L62.2139 55.7046C60.5361 52.5705 58.4282 49.683 55.9506 47.1249L55.962 47.1363C53.5404 44.6239 50.771 42.4669 47.7372 40.7299L47.5594 40.6359C44.9683 39.0301 41.9993 38.1256 38.9474 38.0125H38.9129L38.9015 38.0182ZM28.1902 28.6266H28.3221C30.0133 28.6284 31.6452 28.0073 32.902 26.8833L32.8963 26.889C34.1599 25.7963 35.123 24.4024 35.6953 22.8384L35.7182 22.77C36.2872 21.1769 36.5753 19.4983 36.5699 17.8079V17.7139V17.7196C36.5441 15.2841 36.0537 12.9712 35.1791 10.8519L35.2249 10.9772C34.3364 8.69592 32.9381 6.64474 31.1355 4.97822L31.124 4.96967C29.4789 3.34175 27.2545 2.42279 24.9324 2.4117H24.7976C23.0368 2.4117 21.4308 3.07256 20.2177 4.155L20.2235 4.1493C18.9674 5.24028 17.998 6.62466 17.4245 8.19989L17.4015 8.26825C16.8538 9.75518 16.5383 11.4728 16.5383 13.2617V13.3187V13.3158C16.5632 15.6642 17.0351 17.9867 17.9292 20.1608L17.8833 20.0355C18.7727 22.3292 20.1818 24.3887 22.0015 26.0544L22.013 26.0658C23.6604 27.6895 25.8837 28.606 28.2046 28.6181H28.2074L28.1902 28.6266ZM8.83254 24.0006L8.5687 23.9949C6.47234 23.9949 4.62261 25.0375 3.51564 26.6298L3.50129 26.6497C2.26926 28.4029 1.61134 30.4907 1.61715 32.6288L1.62002 32.8737V32.8623C1.67649 35.2801 2.24413 37.659 3.28609 39.8447C4.32806 42.0304 5.82106 43.9741 7.66822 45.5496L7.69115 45.5696C9.42784 47.1344 11.6815 48.0129 14.0261 48.0392H14.0319C15.0675 48.0855 16.0981 47.8707 17.0277 47.415C17.9573 46.9593 18.7558 46.2774 19.3488 45.4328L19.3631 45.4129C20.6442 43.6011 21.3039 41.4277 21.2444 39.2145V39.2259C21.1895 36.7997 20.6228 34.4119 19.581 32.2167C18.5393 30.0215 17.0455 28.0677 15.1962 26.4817L15.1733 26.4617C13.4385 24.9018 11.1896 24.0255 8.84975 23.9978H8.84402L8.83254 24.0006Z" fill="#9E9E9E"/>
<path d="M41.2416 17.7196V17.8079C41.2404 19.535 41.5392 21.2493 42.1249 22.8754L42.0905 22.77C42.6598 24.3546 43.6272 25.7685 44.9009 26.8776L44.9124 26.8862C46.1197 27.9657 47.7257 28.6237 49.4865 28.6237H49.6242H49.6185C51.9416 28.6105 54.1664 27.6908 55.8129 26.0629C57.6117 24.4229 59.0112 22.3977 59.9053 20.1409L59.9426 20.0326C60.8092 17.8997 61.2654 15.6243 61.2876 13.3244V13.2247C61.2876 11.4472 60.975 9.74094 60.4043 8.15716L60.4387 8.26256C59.8693 6.67799 58.9019 5.26412 57.6282 4.155L57.6168 4.14645C56.3208 2.98826 54.6277 2.36655 52.8849 2.40886H52.8935C50.5697 2.41872 48.3437 3.33897 46.699 4.96967C44.9182 6.60961 43.5305 8.62555 42.6382 10.8689L42.6009 10.9772C41.7721 12.9712 41.2817 15.287 41.2559 17.7111V17.7196H41.2416ZM56.57 39.2202L56.5671 39.4595C56.5637 41.6015 57.2301 43.6918 58.4742 45.4414L58.4513 45.4072C59.0186 46.219 59.7753 46.8824 60.6567 47.3407C61.5381 47.799 62.5181 48.0387 63.513 48.0392L63.7969 48.0335H63.7825C66.1331 48.0079 68.3925 47.126 70.1319 45.5553L70.1233 45.5639C71.9736 43.9896 73.4703 42.0467 74.5162 39.861C75.562 37.6754 76.1338 35.2958 76.1944 32.8766V32.8538L76.1973 32.6202C76.1973 30.3841 75.4918 28.3104 74.2902 26.6098L74.3131 26.644C73.7229 25.787 72.922 25.0938 71.9866 24.6302C71.0511 24.1666 70.0119 23.9479 68.9675 23.9949H68.9819C66.6313 24.0206 64.3719 24.9024 62.6326 26.4731L62.6412 26.4646C60.7879 28.0481 59.2899 30.0005 58.2441 32.1953C57.1983 34.3901 56.628 36.7785 56.57 39.206V39.2259V39.2202ZM38.9015 38.0182C34.7145 38.2452 30.7046 39.7704 27.436 42.3792L27.4761 42.3479C23.4751 45.1703 20.0277 48.6959 17.304 52.7507L17.2123 52.896C14.7574 56.1719 13.3227 60.0905 13.0855 64.1675L13.0826 64.2245L13.0769 64.4723C13.0769 65.6231 13.3608 66.7113 13.8627 67.6655L13.8455 67.6285C14.327 68.5035 15.079 69.2016 15.9906 69.6196L16.0193 69.631C16.8538 70.0269 17.826 70.3374 18.8412 70.5112L18.91 70.5197C19.9686 70.6856 21.0388 70.7675 22.1105 70.7647H22.3256H22.3141C25.269 70.5704 28.1679 69.8708 30.8831 68.6967L30.7168 68.7622C33.2809 67.6516 36.0147 66.9766 38.804 66.7654L38.8929 66.7597C42.0561 66.9933 44.987 67.6997 47.7114 68.8078L47.5192 68.7394C50.3601 69.8727 53.3674 70.5404 56.4238 70.7163L56.5041 70.7191C61.9835 70.7229 64.7232 68.559 64.7232 64.2273C64.599 61.1922 63.7202 58.2348 62.1651 55.6191L62.2139 55.7046C60.5361 52.5705 58.4282 49.683 55.9506 47.1249L55.962 47.1363C53.5404 44.6239 50.771 42.4669 47.7372 40.7299L47.5594 40.6359C44.9683 39.0301 41.9993 38.1256 38.9474 38.0125H38.9129L38.9015 38.0182ZM28.1902 28.6266H28.3221C30.0133 28.6284 31.6452 28.0073 32.902 26.8833L32.8963 26.889C34.1599 25.7963 35.123 24.4024 35.6953 22.8384L35.7182 22.77C36.2872 21.1769 36.5753 19.4983 36.5699 17.8079V17.7139V17.7196C36.5441 15.2841 36.0537 12.9712 35.1791 10.8519L35.2249 10.9772C34.3364 8.69592 32.9381 6.64474 31.1355 4.97822L31.124 4.96967C29.4789 3.34175 27.2545 2.42279 24.9324 2.4117H24.7976C23.0368 2.4117 21.4308 3.07256 20.2177 4.155L20.2235 4.1493C18.9674 5.24028 17.998 6.62466 17.4245 8.19989L17.4015 8.26825C16.8538 9.75518 16.5383 11.4728 16.5383 13.2617V13.3187V13.3158C16.5632 15.6642 17.0351 17.9867 17.9292 20.1608L17.8833 20.0355C18.7727 22.3292 20.1818 24.3887 22.0015 26.0544L22.013 26.0658C23.6604 27.6895 25.8837 28.606 28.2046 28.6181H28.2074L28.1902 28.6266ZM8.83254 24.0006L8.5687 23.9949C6.47234 23.9949 4.62261 25.0375 3.51564 26.6298L3.50129 26.6497C2.26926 28.4029 1.61134 30.4907 1.61715 32.6288L1.62002 32.8737V32.8623C1.67649 35.2801 2.24413 37.659 3.28609 39.8447C4.32806 42.0304 5.82106 43.9741 7.66822 45.5496L7.69115 45.5696C9.42784 47.1344 11.6815 48.0129 14.0261 48.0392H14.0319C15.0675 48.0855 16.0981 47.8707 17.0277 47.415C17.9573 46.9593 18.7558 46.2774 19.3488 45.4328L19.3631 45.4129C20.6442 43.6011 21.3039 41.4277 21.2444 39.2145V39.2259C21.1895 36.7997 20.6228 34.4119 19.581 32.2167C18.5393 30.0215 17.0455 28.0677 15.1962 26.4817L15.1733 26.4617C13.4385 24.9018 11.1896 24.0255 8.84975 23.9978H8.84402L8.83254 24.0006Z" stroke="black" stroke-width="3" mask="url(#path-1-outside-1_94_4284)"/>
</svg>
