<svg width="90" height="90" viewBox="0 0 90 90" fill="none" xmlns="http://www.w3.org/2000/svg">
<g clip-path="url(#clip0_94_994)">
<g clip-path="url(#clip1_94_994)">
<g clip-path="url(#clip2_94_994)">
<g clip-path="url(#clip3_94_994)">
<g clip-path="url(#clip4_94_994)">
<g clip-path="url(#clip5_94_994)">
<g clip-path="url(#clip6_94_994)">
<path d="M45 71.3571C59.5566 71.3571 71.3571 59.5566 71.3571 45C71.3571 30.4433 59.5566 18.6429 45 18.6429C30.4433 18.6429 18.6428 30.4433 18.6428 45C18.6428 59.5566 30.4433 71.3571 45 71.3571Z" fill="#003459"/>
<g clip-path="url(#clip7_94_994)">
<path d="M38.5595 39.1673C39.6585 38.6666 40.7954 38.1496 41.99 37.8172C43.1631 37.4909 45.5856 36.8133 45.1412 34.8107C46.3527 34.7539 48.9624 34.6542 51.1358 34.7243C52.6557 34.7739 56.2876 34.7202 57.2096 33.1558C57.4454 32.7559 57.609 32.0829 57.0506 31.147C56.6159 30.4178 55.9035 30.3851 55.3834 30.3615C54.7693 30.3339 54.1617 30.3283 53.4381 30.3283C52.5703 30.3283 51.6774 30.2076 50.8131 30.0905L50.6525 30.069C48.81 29.8205 46.8994 29.4983 44.9735 29.1107C44.2273 28.9608 43.4838 28.7737 42.7642 28.5931C40.5887 28.0464 38.3371 27.4819 35.8783 27.9206C34.4888 28.1687 33.1873 28.6995 31.9282 29.2129L31.3391 29.4523C30.2601 29.8859 29.1391 30.2864 28.056 30.6735C27.6346 30.8238 27.2137 30.9742 26.7938 31.1266C26.5284 31.2232 26.3914 31.5168 26.488 31.7822C26.5847 32.0476 26.8777 32.1852 27.1436 32.088C27.5614 31.9361 27.9808 31.7863 28.4001 31.6365C29.493 31.2463 30.6232 30.8428 31.7206 30.4014L32.3144 30.16C33.5243 29.6666 34.7752 29.1567 36.0583 28.9276C38.3033 28.5261 40.3494 29.0406 42.5152 29.5847C43.246 29.7683 44.0013 29.958 44.7715 30.1135C46.7194 30.5052 48.6519 30.8315 50.516 31.0826L50.6766 31.1041C51.5735 31.2253 52.5017 31.3506 53.4381 31.3511C54.1479 31.3511 54.7422 31.3567 55.3364 31.3833C55.8657 31.4073 56.0396 31.4483 56.1725 31.6712C56.5372 32.2829 56.3802 32.5488 56.3285 32.6362C55.8376 33.4683 53.3092 33.7731 51.169 33.702C48.679 33.6202 45.6408 33.7598 44.6999 33.8084C43.9803 32.8347 42.733 32.7917 42.0764 32.9472L34.2776 34.129C33.9984 34.1714 33.8066 34.4323 33.8485 34.711C33.891 34.9902 34.1528 35.1835 34.431 35.14L42.2677 33.951C42.4242 33.9163 43.8019 33.6473 44.1383 34.9948C44.3639 35.8974 43.3329 36.3822 41.6867 36.8399C40.4435 37.1856 39.2699 37.72 38.1356 38.2365C37.573 38.4922 36.9916 38.7576 36.4158 38.9919C35.6292 39.3125 34.7159 39.6649 33.8266 39.7922C32.3036 40.0095 30.7024 39.9369 29.1534 39.8658C28.4533 39.8336 27.7292 39.8009 27.0183 39.7948C26.7197 39.782 26.5049 40.0193 26.5028 40.3016C26.5008 40.5838 26.7273 40.815 27.0096 40.8176C27.7016 40.8237 28.416 40.8559 29.1064 40.8876C29.8939 40.9234 30.6948 40.9602 31.4987 40.9602C32.3236 40.9602 33.1515 40.9219 33.9713 40.8043C34.9757 40.6611 35.9591 40.2821 36.8019 39.939C37.3966 39.6966 37.9878 39.4276 38.5595 39.1673Z" fill="white"/>
<path d="M63.5326 61.3297L63.2789 60.0957C62.2152 54.9249 60.7306 49.767 59.422 45.3383C59.2711 44.8274 59.1213 44.3165 58.973 43.8051C58.9203 43.6241 58.7725 43.4865 58.5879 43.4471C58.4022 43.4078 58.2125 43.4732 58.0908 43.6174L55.5711 46.6025C55.2781 45.5035 55.0357 44.6085 54.8818 44.069C53.9485 40.8017 51.7822 40.7577 51.6902 40.7577C51.6902 40.7577 48.6934 40.7485 46.9234 40.7485C44.9218 40.7485 43.6459 42.4162 43.585 42.4975L41.6351 45.235L35.0493 46.4015C34.7906 46.4475 34.6085 46.6822 34.6284 46.9441C34.6382 47.0678 34.6469 47.231 34.6576 47.4248C34.8156 50.2794 35.1736 52.9934 36.7103 53.5155C38.1576 54.0075 39.6887 54.143 41.1687 54.2744C41.4771 54.3015 41.7854 54.3286 42.0923 54.3593C42.215 55.7125 42.6113 59.8988 42.9601 61.4335C43.0138 61.6708 43.225 61.8313 43.4582 61.8318C43.4955 61.8318 43.5339 61.8278 43.5723 61.8191C43.8479 61.7562 44.0202 61.4826 43.9573 61.2069C43.5631 59.4718 43.0788 53.9067 43.0736 53.8505C43.0527 53.6076 42.863 53.4132 42.6211 53.3861C42.17 53.336 41.7149 53.2956 41.2592 53.2557C39.8391 53.1299 38.3703 53 37.0392 52.5469C36.313 52.2999 35.8553 50.5576 35.6789 47.368C35.6783 47.3547 35.6773 47.3419 35.6768 47.3292L42.0191 46.2056C42.1511 46.1821 42.2687 46.1079 42.347 45.999L44.4104 43.1014C44.4207 43.0881 45.4271 41.7713 46.9234 41.7713C48.6821 41.7713 51.6533 41.7805 51.6794 41.7805C51.7408 41.7825 53.1875 41.8618 53.8984 44.3503C54.0615 44.922 54.3264 45.9003 54.644 47.0954L51.8288 47.5015C50.4935 47.6478 49.9028 48.712 49.3817 49.6509C49.2334 49.9184 49.0933 50.171 48.9409 50.3955C48.8944 50.464 48.8432 50.553 48.788 50.6507C48.7184 50.7734 48.5737 51.0291 48.5241 51.0685C48.4944 51.0767 48.4663 51.0879 48.4387 51.1012C48.3937 51.1232 47.3285 51.6412 46.5915 52.1322C46.4381 52.2345 46.3517 52.4114 46.3655 52.5955C46.3768 52.7505 46.68 56.3993 49.5096 56.7721C51.1829 56.9925 52.3734 57.0503 52.9891 57.0641L53.4223 61.772C53.4463 62.0374 53.6693 62.2364 53.9311 62.2364C53.9464 62.2364 53.9628 62.2358 53.9787 62.2343C54.2599 62.2087 54.467 61.9597 54.4405 61.6779L53.9649 56.5082C53.9403 56.2402 53.7076 56.0367 53.4432 56.0444C53.4289 56.0444 52.0359 56.073 49.643 55.758C48.0204 55.5447 47.5468 53.5733 47.4241 52.8144C48.005 52.4585 48.7005 52.1117 48.854 52.0366C49.259 51.8939 49.4999 51.4689 49.6773 51.1554C49.7177 51.0843 49.7535 51.0194 49.7873 50.9693C49.9652 50.7069 50.1232 50.4226 50.2756 50.1469C50.808 49.1886 51.1849 48.601 51.9571 48.5161L54.9079 48.0906L55.5645 47.996C55.6888 47.9781 55.8018 47.9152 55.8821 47.8201L55.8913 47.8094L58.258 45.0054C58.3189 45.213 58.3802 45.4206 58.4411 45.6277C59.7436 50.0365 61.2216 55.1699 62.2771 60.3017L62.5307 61.5352C62.5875 61.8119 62.857 61.9909 63.1342 61.9336C63.4109 61.8768 63.5893 61.6063 63.5326 61.3297Z" fill="white"/>
</g>
</g>
<path d="M4.01616 34.4468C3.3852 34.2315 2.87702 33.9178 2.49163 33.5057C2.10495 33.0907 1.85809 32.6137 1.7517 32.0753C1.64434 31.5389 1.68966 30.9809 1.88734 30.401C2.1432 29.6505 2.53631 29.0947 3.06666 28.7328C3.59702 28.3712 4.21159 28.2227 4.9107 28.2873L4.53881 29.3776C4.1322 29.3554 3.76995 29.4579 3.45206 29.6852C3.13416 29.9124 2.8992 30.2487 2.74748 30.6945C2.54981 31.2743 2.58838 31.8098 2.86352 32.301C3.13866 32.7921 3.64073 33.1621 4.36974 33.4109C5.10516 33.6616 5.73388 33.6773 6.2562 33.4581C6.77852 33.2389 7.13852 32.8394 7.33588 32.2595C7.48791 31.814 7.51106 31.4077 7.40531 31.041C7.29827 30.6713 7.0707 30.3653 6.72259 30.1227L7.09448 29.0321C7.66181 29.4065 8.04913 29.9028 8.25741 30.5212C8.46538 31.1397 8.44384 31.8163 8.19313 32.5517C7.99545 33.1316 7.69009 33.6008 7.27706 33.9599C6.8637 34.3208 6.37706 34.5478 5.81713 34.64C5.25591 34.7294 4.65548 34.6651 4.01616 34.4468Z" fill="#003459"/>
<path d="M11.3639 25.8364C11.0627 26.3597 10.6709 26.7654 10.1874 27.054C9.70433 27.3426 9.17461 27.4821 8.59797 27.4725C8.02068 27.46 7.44275 27.2874 6.86515 26.9547C6.293 26.6255 5.85972 26.2112 5.56529 25.7117C5.26861 25.2109 5.12686 24.6786 5.13972 24.1142C5.14968 23.5507 5.30718 23.0037 5.61286 22.4727C5.91854 21.9417 6.31229 21.5302 6.79443 21.2387C7.27593 20.944 7.80565 20.798 8.38358 20.8006C8.9615 20.8032 9.53943 20.9706 10.1174 21.3033C10.6953 21.636 11.1302 22.0564 11.4224 22.5646C11.7136 23.0699 11.8531 23.6089 11.8405 24.1814C11.8283 24.7539 11.6692 25.3054 11.3639 25.8364ZM10.5497 25.3681C10.7419 25.0341 10.8435 24.677 10.8547 24.2961C10.865 23.9124 10.7663 23.5398 10.5584 23.1785C10.3494 22.8192 10.0203 22.5103 9.57158 22.2519C9.12254 21.9934 8.69086 21.8632 8.2759 21.8613C7.86061 21.8562 7.49418 21.9532 7.17693 22.1525C6.86065 22.3499 6.6064 22.6154 6.41418 22.9494C6.21875 23.2891 6.11622 23.6433 6.1069 24.012C6.09629 24.3826 6.19915 24.7432 6.41579 25.0939C6.6305 25.4436 6.96222 25.7474 7.41125 26.0061C7.86608 26.2678 8.2984 26.4063 8.70822 26.4211C9.11708 26.433 9.47772 26.344 9.78918 26.1543C10.1042 25.964 10.3575 25.7017 10.5497 25.3681Z" fill="#003459"/>
<path d="M11.0872 14.9605C11.6005 14.3653 12.1958 14.0384 12.8733 13.9799C13.5509 13.9217 14.2285 14.1843 14.9061 14.7683L17.7851 17.2498L17.0924 18.0533L14.3285 15.6712C13.8405 15.2508 13.3626 15.0515 12.8946 15.0734C12.4266 15.092 12.01 15.3132 11.6455 15.7362C11.2765 16.1643 11.1171 16.6201 11.1672 17.1035C11.2173 17.5869 11.4976 18.0485 12.0077 18.4879L14.7103 20.8173L14.0109 21.6286L9.12549 17.4179L9.82492 16.6066L10.5208 17.2064C10.4083 16.83 10.4028 16.4446 10.5047 16.0505C10.6063 15.6564 10.8008 15.2932 11.0872 14.9605Z" fill="#003459"/>
<path d="M21.8936 9.67979C22.0186 9.84244 22.1414 10.0205 22.2623 10.2147L18.1744 13.3563C18.5919 13.8365 19.0666 14.0978 19.5992 14.1403C20.1306 14.1808 20.6201 14.029 21.0685 13.6845C21.4365 13.4016 21.6766 13.0805 21.7895 12.7212C21.9042 12.3602 21.9016 11.9986 21.7821 11.636L22.6956 10.934C22.9354 11.5309 22.9688 12.1416 22.7955 12.7661C22.621 13.3891 22.2292 13.9345 21.6201 14.4025C21.1344 14.7757 20.6166 15.0004 20.0669 15.0763C19.5173 15.1521 18.9799 15.0737 18.4546 14.841C17.9278 14.6067 17.4614 14.2251 17.0551 13.6967C16.6489 13.1679 16.3981 12.6238 16.3027 12.0635C16.2091 11.502 16.2712 10.9671 16.4888 10.4589C16.7048 9.94915 17.0622 9.50269 17.5601 9.11986C18.0458 8.74669 18.5572 8.52265 19.0936 8.4484C19.6288 8.37222 20.1402 8.44229 20.6275 8.65861C21.1135 8.87333 21.5355 9.2134 21.8936 9.67979ZM20.8817 10.1761C20.6333 9.85272 20.3479 9.62901 20.0251 9.50526C19.7021 9.3844 19.3717 9.35708 19.0335 9.42361C18.6938 9.49144 18.3746 9.64026 18.0766 9.86944C17.6482 10.1989 17.3878 10.6161 17.2959 11.1211C17.204 11.6264 17.3226 12.139 17.6511 12.6591L20.8817 10.1761Z" fill="#003459"/>
<path d="M23.6974 8.94308C23.3985 8.34715 23.2561 7.7673 23.2705 7.20287C23.286 6.63587 23.4444 6.12287 23.7456 5.66419C24.0452 5.20647 24.4688 4.84037 25.0162 4.56555C25.725 4.21005 26.3951 4.08919 27.0267 4.20297C27.6584 4.31676 28.2009 4.64205 28.6541 5.17819L27.6243 5.69505C27.3498 5.39419 27.0197 5.21355 26.634 5.15247C26.2482 5.09172 25.8449 5.16662 25.4241 5.3778C24.8764 5.65262 24.5286 6.06147 24.3801 6.60469C24.2319 7.1479 24.3303 7.76376 24.6758 8.45194C25.0242 9.14655 25.4617 9.59847 25.9876 9.80837C26.5137 10.0183 27.0505 9.9858 27.5982 9.71097C28.019 9.4998 28.3202 9.22658 28.5021 8.89101C28.685 8.55222 28.7374 8.17455 28.6593 7.75733L29.6888 7.2408C29.8309 7.90551 29.7592 8.53101 29.4741 9.11762C29.189 9.70422 28.6988 10.1719 28.0042 10.5203C27.4565 10.7952 26.9097 10.9157 26.364 10.8823C25.8159 10.8498 25.31 10.6701 24.8462 10.3435C24.3833 10.0138 24.0005 9.54705 23.6974 8.94308Z" fill="#003459"/>
<path d="M33.5067 2.33934L31.9021 2.84591L33.0464 6.47066C33.1412 6.77152 33.2714 6.96277 33.4369 7.04505C33.6031 7.12959 33.8439 7.12219 34.1595 7.02255L34.91 6.78566L35.1826 7.64902L34.2646 7.93894C33.6954 8.11862 33.2267 8.12248 32.858 7.95052C32.4919 7.77791 32.2142 7.39219 32.0249 6.79305L30.8809 3.1683L30.0851 3.41966L29.8196 2.5788L30.6154 2.32744L30.1262 0.777837L31.1474 0.455444L31.6366 2.00505L33.2412 1.49848L33.5067 2.33934Z" fill="#003459"/>
<path d="M35.9517 4.18241C35.8539 3.53216 35.8993 2.94105 36.0879 2.40909C36.2786 1.87488 36.5839 1.43709 37.0043 1.09605C37.4244 0.755019 37.9185 0.54159 38.4864 0.45609C39.0432 0.372197 39.5459 0.419769 39.994 0.598483C40.4423 0.777197 40.794 1.03402 41.0495 1.36895L40.8747 0.20634L41.9469 0.0449829L42.9064 6.42277L41.8338 6.58413L41.6554 5.39805C41.5021 5.80145 41.2366 6.15695 40.8592 6.46423C40.4816 6.76927 40.0164 6.96341 39.4639 7.04666C38.8982 7.13184 38.365 7.06948 37.8645 6.86023C37.366 6.65066 36.9462 6.31284 36.6051 5.84677C36.2667 5.38295 36.0487 4.82816 35.9517 4.18241ZM41.3526 3.38366C41.2803 2.90248 41.1202 2.49845 40.8727 2.17091C40.6249 1.84145 40.3221 1.6068 39.9641 1.4673C39.606 1.32748 39.2286 1.28763 38.8323 1.34709C38.4382 1.40623 38.0911 1.55313 37.7915 1.78713C37.4945 2.02305 37.2759 2.33388 37.1358 2.71959C36.9957 3.10498 36.9616 3.53827 37.0339 4.01945C37.1075 4.5093 37.2686 4.92041 37.5167 5.25213C37.7648 5.58384 38.0657 5.81977 38.4193 5.96023C38.7754 6.10263 39.1508 6.14409 39.5449 6.08463C39.9412 6.02484 40.29 5.87473 40.5908 5.63334C40.892 5.39452 41.1122 5.07984 41.2517 4.69027C41.3912 4.30038 41.4246 3.86484 41.3526 3.38366Z" fill="#003459"/>
<path d="M50.5068 1.61228C50.7723 1.2796 51.1323 1.02278 51.5862 0.842136C52.0381 0.661172 52.5399 0.613279 53.0921 0.698458C53.6575 0.785886 54.1496 1.0006 54.5684 1.34356C54.9872 1.68621 55.291 2.12528 55.4796 2.66014C55.6664 3.19274 55.7095 3.78385 55.6092 4.4341C55.5095 5.07953 55.2897 5.63367 54.9493 6.09589C54.6063 6.56035 54.183 6.89592 53.6793 7.10324C53.1756 7.31024 52.6411 7.37035 52.0757 7.28292C51.5325 7.19903 51.0716 7.0036 50.6926 6.69696C50.3162 6.38806 50.0475 6.03449 49.8855 5.6356L49.2372 9.83603L48.1787 9.67274L49.6296 0.273529L50.6881 0.436815L50.5068 1.61228ZM54.5272 4.26696C54.6015 3.7861 54.5694 3.35281 54.4308 2.96678C54.2923 2.58074 54.0724 2.26864 53.7719 2.03078C53.471 1.79517 53.1223 1.64667 52.726 1.5856C52.3386 1.52581 51.9658 1.56503 51.6071 1.70356C51.2484 1.84178 50.9424 2.0761 50.6884 2.40589C50.4345 2.73599 50.2712 3.1381 50.1979 3.61221C50.1237 4.09306 50.1577 4.52892 50.3005 4.92042C50.4429 5.3116 50.6643 5.62724 50.9642 5.86703C51.2641 6.10939 51.6077 6.26046 51.995 6.32024C52.3914 6.38131 52.769 6.34178 53.1281 6.20131C53.4868 6.0631 53.7909 5.82846 54.04 5.49771C54.2894 5.16696 54.4517 4.75681 54.5272 4.26696Z" fill="#003459"/>
<path d="M63.3745 7.05374C63.3025 7.24563 63.2163 7.44427 63.1154 7.64934L58.2872 5.84131C58.1005 6.44945 58.1297 6.99074 58.3753 7.46549C58.6218 7.93766 59.0098 8.27291 59.5392 8.47124C59.9738 8.63388 60.3733 8.66827 60.7381 8.57377C61.1049 8.48024 61.4109 8.28674 61.6555 7.99359L62.7342 8.39763C62.3546 8.91674 61.8538 9.26806 61.2322 9.45127C60.6112 9.63256 59.941 9.5882 59.2216 9.31916C58.6479 9.10445 58.1834 8.78366 57.8286 8.35745C57.4734 7.93124 57.2558 7.43334 57.1754 6.86441C57.0957 6.29356 57.1728 5.6957 57.4065 5.07149C57.6402 4.44727 57.9697 3.94649 58.3949 3.56913C58.8221 3.19274 59.3087 2.96259 59.8548 2.87838C60.4019 2.79223 60.9695 2.85941 61.5581 3.07959C62.1318 3.29431 62.5921 3.60995 62.9389 4.0262C63.2867 4.4402 63.4976 4.91109 63.5715 5.4392C63.6464 5.96506 63.5808 6.50313 63.3745 7.05374ZM62.4182 6.45749C62.5613 6.07563 62.6002 5.71499 62.5346 5.37556C62.4664 5.03741 62.3147 4.74234 62.0794 4.49066C61.8419 4.23834 61.5472 4.04613 61.1952 3.91434C60.6889 3.7247 60.1972 3.7247 59.7198 3.9137C59.2425 4.10302 58.87 4.47459 58.6025 5.02874L62.4182 6.45749Z" fill="#003459"/>
<path d="M67.8933 3.52573L68.8387 4.0294L64.7437 11.7164L63.7983 11.213L67.8933 3.52573Z" fill="#003459"/>
<path d="M74.18 10.513L75.0434 11.1468L71.2254 16.3449L70.3621 15.7111L70.9262 14.9432C70.5681 15.0882 70.1876 15.1271 69.7842 15.0602C69.3808 14.993 69.0021 14.8294 68.6479 14.5694C68.2432 14.2721 67.9404 13.9214 67.7399 13.517C67.5406 13.1107 67.4712 12.6726 67.5316 12.2027C67.5914 11.7296 67.7977 11.2526 68.151 10.7714L70.3868 7.72681L71.2393 8.35295L69.0873 11.2828C68.7099 11.7964 68.5505 12.2856 68.6087 12.7507C68.6656 13.2174 68.9182 13.6154 69.3666 13.9445C69.8295 14.2846 70.2981 14.4093 70.7726 14.319C71.247 14.2287 71.6841 13.9111 72.0843 13.3666L74.18 10.513Z" fill="#003459"/>
<path d="M74.7686 15.3694C75.2588 14.9307 75.7779 14.6446 76.3259 14.5109C76.8772 14.3772 77.4107 14.3923 77.9266 14.5562C78.4422 14.7205 78.8938 15.0191 79.2814 15.452C79.6164 15.8262 79.8417 16.2521 79.9571 16.7291C80.0712 17.2045 80.0638 17.6522 79.9352 18.0723L82.4781 15.7966L83.2013 16.605L76.7113 22.4135L75.9878 21.6055L76.8916 20.7964C76.4635 20.8954 76.0189 20.8732 75.558 20.7296C75.0971 20.5827 74.6812 20.3021 74.3102 19.8877C73.9271 19.4599 73.685 18.9781 73.5838 18.4429C73.4825 17.9077 73.5333 17.3697 73.7355 16.8293C73.9377 16.2919 74.2819 15.8053 74.7686 15.3694ZM78.3998 19.4467C78.7623 19.1224 79.0124 18.7669 79.1503 18.3806C79.2898 17.9926 79.3197 17.6107 79.24 17.2347C79.1603 16.8586 78.9867 16.5211 78.7196 16.2225C78.4538 15.9255 78.1407 15.7159 77.7807 15.5938C77.4204 15.4748 77.0408 15.4626 76.6412 15.5571C76.242 15.6513 75.8611 15.8609 75.4989 16.1852C75.1296 16.5156 74.8743 16.8756 74.7329 17.2649C74.5918 17.6541 74.5593 18.0353 74.6362 18.4079C74.7127 18.7836 74.8837 19.1202 75.1498 19.4175C75.4172 19.7161 75.7342 19.9253 76.1006 20.0443C76.4654 20.1651 76.8492 20.1767 77.2519 20.0796C77.6544 19.9822 78.0372 19.7714 78.3998 19.4467Z" fill="#003459"/>
<path d="M79.0901 26.6287C78.7889 26.1058 78.635 25.5629 78.6279 25.0001C78.6212 24.4376 78.7664 23.9091 79.0644 23.4154C79.3653 22.9223 79.8047 22.5096 80.3823 22.177C80.9541 21.8475 81.5301 21.681 82.1103 21.6771C82.6921 21.672 83.224 21.817 83.7052 22.1114C84.1877 22.4029 84.5814 22.814 84.8874 23.345C85.1931 23.876 85.3509 24.4231 85.3609 24.9866C85.3741 25.551 85.2342 26.0823 84.9417 26.5808C84.6492 27.0794 84.214 27.495 83.6364 27.8277C83.0588 28.1603 82.4767 28.3252 81.8901 28.3227C81.3067 28.3207 80.7706 28.1706 80.282 27.8723C79.7931 27.5741 79.3961 27.1597 79.0901 26.6287ZM79.904 26.1601C80.0962 26.4937 80.354 26.7612 80.6777 26.9621C81.0042 27.1639 81.3761 27.2655 81.793 27.2671C82.2086 27.2668 82.6409 27.1376 83.09 26.8791C83.539 26.6207 83.8685 26.3128 84.0784 25.955C84.2915 25.5982 84.3914 25.2328 84.3786 24.8583C84.3667 24.4858 84.2648 24.1325 84.0726 23.7986C83.8772 23.4588 83.6223 23.1923 83.3082 22.9992C82.9929 22.8037 82.6294 22.7118 82.2173 22.7227C81.8072 22.7327 81.3777 22.8671 80.9287 23.1255C80.4739 23.3875 80.137 23.6918 79.9184 24.0387C79.7028 24.3865 79.5986 24.7426 79.606 25.1074C79.6124 25.4755 79.7118 25.8261 79.904 26.1601Z" fill="#003459"/>
<path d="M82.0862 33.2431C81.9204 32.7786 81.8509 32.3322 81.8776 31.9044C81.903 31.4791 82.0207 31.1085 82.2305 30.7919C82.4385 30.4762 82.723 30.2419 83.0846 30.0892L83.4558 31.1297C83.163 31.2676 82.9657 31.4984 82.8634 31.8217C82.7641 32.1464 82.7882 32.5157 82.9354 32.9294C83.0724 33.3135 83.2652 33.5854 83.5137 33.7455C83.7628 33.9078 84.0167 33.9425 84.2755 33.8503C84.5429 33.7548 84.6988 33.5655 84.7435 33.2817C84.7869 33.0007 84.7837 32.5893 84.7338 32.0477C84.6901 31.5563 84.6792 31.1464 84.7007 30.8186C84.7203 30.491 84.8145 30.1825 84.9839 29.8925C85.1511 29.6032 85.4307 29.3889 85.8232 29.2487C86.133 29.1381 86.4499 29.1291 86.7746 29.2214C87.0992 29.3136 87.3978 29.5036 87.6704 29.7916C87.9443 30.0767 88.1587 30.4364 88.3136 30.8713C88.5534 31.5437 88.5762 32.1477 88.3824 32.6835C88.1911 33.2203 87.8051 33.6092 87.2239 33.85L86.863 32.8378C87.1735 32.7031 87.384 32.4845 87.4936 32.1824C87.6019 31.8831 87.5862 31.5373 87.4464 31.1448C87.3168 30.7819 87.1365 30.5212 86.9054 30.3621C86.674 30.203 86.4332 30.1683 86.1828 30.2574C85.9813 30.3294 85.8389 30.4531 85.7557 30.6286C85.6747 30.8035 85.6297 31.0024 85.6207 31.2255C85.6126 31.4508 85.6223 31.7533 85.6502 32.1332C85.6872 32.6125 85.6975 33.0094 85.6804 33.3241C85.6634 33.6388 85.5753 33.9345 85.4159 34.2112C85.2565 34.488 84.9936 34.6966 84.6274 34.8367C84.2944 34.9557 83.9624 34.9698 83.6313 34.8801C83.2983 34.7908 82.9962 34.6044 82.7252 34.3209C82.4549 34.0393 82.2421 33.6802 82.0862 33.2431Z" fill="#003459"/>
<path d="M1.47388 45.9884C1.47388 45.4371 1.92066 44.9904 2.47223 44.9904C3.02348 44.9904 3.47027 45.4371 3.47027 45.9884C3.47027 46.5396 3.02348 46.9864 2.47223 46.9867C1.92098 46.9867 1.4742 46.54 1.47388 45.9884Z" fill="#003459"/>
<path d="M86.5293 45.9884C86.5293 45.4371 86.9761 44.9904 87.5273 44.9904C88.0786 44.9904 88.5254 45.4371 88.5257 45.9884C88.5257 46.5396 88.0789 46.9864 87.5273 46.9867C86.9761 46.9867 86.5293 46.54 86.5293 45.9884Z" fill="#003459"/>
<path d="M5.92995 57.7353C6.02027 58.0423 6.0402 58.3261 5.99038 58.5874C5.94185 58.8459 5.82967 59.0667 5.6532 59.2499C5.47417 59.4315 5.23985 59.5652 4.95056 59.6501C4.66095 59.7352 4.39288 59.7494 4.14602 59.6928C3.89852 59.634 3.68574 59.509 3.50735 59.3171C3.32831 59.1232 3.19363 58.8729 3.10363 58.5659L2.84424 57.6845L5.67088 56.8536L5.92995 57.7353ZM3.40802 58.4765C3.51474 58.8394 3.69249 59.0889 3.9416 59.2248C4.19263 59.3598 4.4922 59.3765 4.83999 59.274C5.19002 59.1711 5.43624 58.9943 5.57831 58.7436C5.71781 58.4913 5.73452 58.1847 5.62845 57.8237L5.47802 57.3117L3.2576 57.9642L3.40802 58.4765Z" fill="#003459"/>
<path d="M4.17589 61.8644C4.09939 61.6622 4.07625 61.4613 4.10679 61.2617C4.13507 61.063 4.21671 60.884 4.35171 60.7249C4.48736 60.5677 4.66671 60.4469 4.88979 60.3623C5.11093 60.2788 5.32468 60.2521 5.53136 60.2823C5.73643 60.3154 5.91579 60.398 6.06943 60.5301C6.225 60.6616 6.34168 60.8294 6.41914 61.0338C6.49725 61.2402 6.52104 61.4433 6.4905 61.6426C6.46286 61.8432 6.38314 62.0238 6.25104 62.1845C6.11925 62.3452 5.9415 62.4677 5.71843 62.5522C5.49504 62.6368 5.27936 62.6618 5.07139 62.6271C4.86343 62.5927 4.68214 62.5082 4.52754 62.3742C4.371 62.2408 4.25368 62.0707 4.17589 61.8644ZM4.49186 61.7448C4.54039 61.8734 4.61689 61.983 4.72104 62.0733C4.82293 62.1646 4.94829 62.2221 5.09679 62.2456C5.24304 62.2697 5.40375 62.2488 5.57861 62.1826C5.75121 62.1173 5.88621 62.0277 5.98264 61.9139C6.0765 61.7988 6.13307 61.675 6.15268 61.5426C6.16939 61.4086 6.15364 61.2774 6.10511 61.1489C6.05496 61.0161 5.97943 60.9062 5.87914 60.8191C5.77725 60.7349 5.65382 60.6815 5.50789 60.6593C5.361 60.6404 5.20125 60.6635 5.02864 60.7288C4.85154 60.7956 4.71557 60.8847 4.62011 60.9955C4.52175 61.1048 4.46389 61.2257 4.44621 61.3575C4.42789 61.4873 4.443 61.6162 4.49186 61.7448Z" fill="#003459"/>
<path d="M7.60287 63.818C7.72019 64.0739 7.73723 64.3175 7.65494 64.5486C7.57137 64.7775 7.3843 64.9585 7.09341 65.0915L5.85237 65.6595L5.69487 65.3156L6.88673 64.7701C7.09566 64.6746 7.23194 64.5477 7.29591 64.3895C7.35859 64.2346 7.3483 64.0659 7.26505 63.8836C7.18083 63.6994 7.05644 63.5792 6.89187 63.523C6.72537 63.468 6.53284 63.4905 6.31362 63.5908L5.14941 64.1234L4.98901 63.7734L7.09341 62.8104L7.25348 63.1604L6.95551 63.297C7.09373 63.3179 7.22005 63.3741 7.33384 63.4658C7.44762 63.5574 7.5373 63.6747 7.60287 63.818Z" fill="#003459"/>
<path d="M7.28263 65.8723C7.48995 65.7582 7.69502 65.6994 7.89881 65.6955C8.10131 65.6945 8.28613 65.7431 8.45327 65.8414C8.62138 65.9417 8.75574 66.0825 8.8557 66.2641C8.94249 66.4219 8.98684 66.5891 8.98877 66.7652C8.9907 66.9417 8.95213 67.0979 8.87274 67.2342L9.94406 66.6444L10.1315 66.9848L7.39352 68.4916L7.20613 68.1512L7.58799 67.941C7.43081 67.94 7.27684 67.8963 7.12609 67.8095C6.97759 67.7218 6.85481 67.59 6.75838 67.4142C6.6597 67.2345 6.61374 67.0465 6.62113 66.8494C6.62949 66.6547 6.69024 66.4708 6.80338 66.2979C6.91749 66.1272 7.07724 65.9851 7.28263 65.8723ZM8.22442 67.5907C8.37645 67.5071 8.49281 67.4033 8.57349 67.2792C8.65127 67.1542 8.69177 67.0224 8.69563 66.8842C8.69917 66.7459 8.66638 66.6135 8.59663 66.4875C8.52817 66.3631 8.43559 66.2651 8.31892 66.1928C8.2032 66.1227 8.07077 66.0877 7.92163 66.0877C7.77538 66.0883 7.62559 66.131 7.47163 66.2156C7.31574 66.3014 7.19745 66.4062 7.11645 66.5306C7.03674 66.6566 6.99463 66.788 6.98981 66.9243C6.9882 67.0616 7.02163 67.1921 7.09009 67.3165C7.15952 67.4428 7.25274 67.5418 7.36942 67.6138C7.48802 67.6848 7.62206 67.7202 7.7712 67.7205C7.91938 67.7186 8.07045 67.6755 8.22442 67.5907Z" fill="#003459"/>
<path d="M10.14 70.4658C10.0776 70.5063 10.0101 70.5449 9.93717 70.5812L8.92853 69.0287C8.745 69.164 8.63828 69.326 8.60807 69.515C8.57882 69.7059 8.61964 69.8863 8.72989 70.0563C8.81957 70.1942 8.92692 70.2893 9.0526 70.3421C9.17892 70.3916 9.30814 70.4002 9.44025 70.3684L9.66653 70.7168C9.447 70.7843 9.22842 70.7786 9.01082 70.6998C8.79192 70.6191 8.60742 70.4636 8.45796 70.2331C8.33775 70.048 8.27185 69.8557 8.2606 69.6561C8.24742 69.4578 8.29082 69.2685 8.39078 69.0882C8.48978 68.9056 8.63925 68.7494 8.83982 68.6192C9.04007 68.489 9.2416 68.4148 9.4441 68.3958C9.64789 68.3788 9.83785 68.4167 10.0134 68.5093C10.1911 68.6006 10.3412 68.741 10.4637 68.9297C10.5826 69.1129 10.6475 69.3016 10.6585 69.4964C10.6694 69.6908 10.6299 69.8721 10.5405 70.0402C10.4511 70.2083 10.3174 70.3504 10.14 70.4658ZM9.99085 70.0872C10.1136 70.0074 10.2017 69.9113 10.2547 69.7988C10.3062 69.6876 10.3251 69.5703 10.3123 69.4472C10.2975 69.3251 10.2531 69.2074 10.1799 69.0943C10.0731 68.93 9.93107 68.8249 9.75332 68.779C9.5746 68.7314 9.38817 68.7584 9.19371 68.8606L9.99085 70.0872Z" fill="#003459"/>
<path d="M11.3142 72.1973C11.5004 72.0476 11.6932 71.9531 11.8928 71.9138C12.0921 71.8778 12.2834 71.8942 12.4666 71.964C12.6511 72.0353 12.8124 72.1568 12.951 72.3285C13.129 72.5496 13.2213 72.7759 13.2284 73.0073C13.237 73.2375 13.1644 73.4522 13.0098 73.6518L12.7491 73.3281C12.8356 73.2092 12.8745 73.0797 12.8658 72.9392C12.8584 72.8007 12.8015 72.6657 12.6957 72.5342C12.5572 72.3622 12.3869 72.2709 12.1847 72.26C11.9825 72.2494 11.7742 72.3301 11.5601 72.5027C11.3425 72.6779 11.2175 72.8653 11.1844 73.0652C11.1497 73.2664 11.2017 73.4532 11.3403 73.6251C11.4464 73.7566 11.5653 73.8418 11.6971 73.88C11.8292 73.9183 11.9648 73.9073 12.1043 73.8469L12.365 74.1706C12.1426 74.2715 11.9176 74.2937 11.6897 74.2371C11.4618 74.1806 11.2612 74.0443 11.0876 73.8286C10.9491 73.6566 10.8649 73.4728 10.8347 73.2773C10.8041 73.0851 10.8289 72.8945 10.9086 72.7062C10.9896 72.5194 11.1249 72.35 11.3142 72.1973Z" fill="#003459"/>
<path d="M13.1413 74.4056C13.3149 74.2448 13.4997 74.1381 13.6964 74.0851C13.8928 74.0353 14.0841 74.0378 14.2698 74.0928C14.4572 74.1494 14.6208 74.2529 14.76 74.4033C14.8976 74.5521 14.985 74.7109 15.0213 74.8793C15.058 75.0481 15.0525 75.2049 15.0059 75.3499L15.3158 75.0629L15.5797 75.348L13.8816 76.9204L13.6177 76.6353L13.9349 76.3415C13.7838 76.3772 13.6238 76.3701 13.455 76.3206C13.2882 76.2695 13.1371 76.1715 13.0028 76.0259C12.862 75.8738 12.7729 75.7032 12.7353 75.5135C12.6964 75.3223 12.7109 75.1294 12.7794 74.9343C12.8488 74.7408 12.9697 74.5647 13.1413 74.4056ZM14.4704 75.8456C14.5977 75.7276 14.6855 75.5987 14.734 75.4589C14.7793 75.3187 14.787 75.1812 14.7568 75.0462C14.7269 74.9112 14.663 74.7906 14.5652 74.6849C14.4688 74.5807 14.3553 74.5078 14.2245 74.4663C14.0953 74.4261 13.9584 74.4242 13.8134 74.4602C13.6717 74.4962 13.5363 74.574 13.4078 74.6932C13.2773 74.8141 13.1876 74.9446 13.1394 75.0844C13.0924 75.2262 13.0831 75.3634 13.1114 75.4968C13.1429 75.6302 13.2069 75.7491 13.3033 75.8533C13.4013 75.959 13.5154 76.0326 13.6463 76.0744C13.7787 76.1146 13.9172 76.1168 14.0622 76.0808C14.2056 76.0432 14.3415 75.9648 14.4704 75.8456Z" fill="#003459"/>
<path d="M15.3183 76.6922C15.4793 76.519 15.6558 76.3988 15.848 76.3313C16.0402 76.267 16.2308 76.2554 16.4204 76.2965C16.6117 76.339 16.783 76.4309 16.9347 76.572C17.0665 76.6948 17.161 76.8394 17.2182 77.0063C17.2751 77.1731 17.2873 77.3338 17.2546 77.4881L18.0877 76.5926L18.3722 76.8574L16.2433 79.145L15.9589 78.8805L16.2559 78.5613C16.1061 78.6099 15.9463 78.6163 15.776 78.5809C15.6072 78.544 15.4497 78.4572 15.3028 78.3209C15.1527 78.1814 15.0505 78.0168 14.9959 77.8275C14.9428 77.6398 14.9432 77.446 14.9965 77.2464C15.0515 77.0484 15.1588 76.8635 15.3183 76.6922ZM16.7506 78.0297C16.8688 77.9027 16.9466 77.7677 16.9846 77.6244C17.0193 77.4813 17.0167 77.3434 16.9768 77.211C16.937 77.0786 16.8643 76.9632 16.7589 76.8652C16.6551 76.7684 16.5365 76.7041 16.4031 76.6723C16.2713 76.6421 16.1347 76.6501 15.9926 76.6967C15.8541 76.743 15.7249 76.8308 15.6053 76.9593C15.4841 77.0895 15.4044 77.2264 15.3668 77.3695C15.3305 77.5141 15.3314 77.652 15.3697 77.7828C15.4112 77.9136 15.4838 78.0274 15.5873 78.1242C15.6927 78.2222 15.8123 78.2875 15.946 78.3193C16.081 78.3495 16.2192 78.3415 16.361 78.2945C16.5011 78.2463 16.631 78.1583 16.7506 78.0297Z" fill="#003459"/>
<path d="M17.6592 78.8107C17.8071 78.6262 17.9742 78.4932 18.1606 78.4115C18.3474 78.3331 18.537 78.3074 18.7289 78.3341C18.9227 78.3624 19.0995 78.4405 19.2596 78.5687C19.4177 78.6954 19.5277 78.8394 19.5887 79.0007C19.6498 79.1621 19.6678 79.318 19.6431 79.4684L19.907 79.1386L20.2104 79.3813L18.764 81.188L18.4605 80.9454L18.7309 80.6079C18.5865 80.6654 18.4274 80.6824 18.2535 80.6583C18.0809 80.6326 17.917 80.5577 17.7621 80.434C17.6004 80.3044 17.4869 80.1489 17.422 79.9669C17.3551 79.7837 17.341 79.5905 17.3796 79.3874C17.4197 79.1859 17.513 78.9936 17.6592 78.8107ZM19.187 80.038C19.2953 79.9026 19.3631 79.7622 19.3901 79.6166C19.4142 79.4713 19.4014 79.334 19.3519 79.2048C19.3024 79.0756 19.2214 78.966 19.1085 78.8763C18.9976 78.7876 18.8745 78.7323 18.7395 78.7105C18.6058 78.6899 18.4702 78.7082 18.332 78.7651C18.1973 78.8217 18.0748 78.9184 17.9652 79.0557C17.854 79.1945 17.7849 79.3369 17.7579 79.4825C17.7325 79.6294 17.7437 79.767 17.7913 79.8946C17.8424 80.0219 17.9231 80.1299 18.034 80.2186C18.1465 80.3086 18.2706 80.3645 18.4059 80.3867C18.5428 80.407 18.6801 80.3883 18.818 80.3314C18.9542 80.2729 19.077 80.1752 19.187 80.038Z" fill="#003459"/>
<path d="M22.159 81.2391C22.2949 81.1681 22.4502 81.1363 22.6247 81.143C22.8005 81.1482 22.9718 81.2038 23.139 81.3105C23.3138 81.4217 23.445 81.5641 23.5321 81.737C23.6215 81.9112 23.6581 82.099 23.6423 82.2998C23.6272 82.504 23.5562 82.7055 23.4292 82.9051C23.3036 83.1028 23.1506 83.2526 22.9709 83.3541C22.7931 83.4573 22.6057 83.5062 22.4087 83.501C22.2136 83.4968 22.0288 83.4393 21.8539 83.3281C21.6887 83.223 21.5659 83.0925 21.4859 82.9372C21.4071 82.7801 21.3695 82.6255 21.3731 82.4731L20.5547 83.7582L20.2297 83.5515L22.0628 80.6731L22.3875 80.8801L22.159 81.2391ZM23.0956 82.6926C23.1901 82.5445 23.2422 82.3976 23.2524 82.252C23.2637 82.1041 23.237 81.9697 23.1727 81.8486C23.1065 81.7261 23.0133 81.6271 22.8937 81.5509C22.7742 81.4747 22.6449 81.4339 22.5067 81.4284C22.3685 81.4233 22.2338 81.4564 22.103 81.5281C21.9722 81.5995 21.8607 81.7075 21.7687 81.8518C21.6742 82 21.6225 82.1485 21.6132 82.2973C21.6038 82.4461 21.6308 82.5821 21.6938 82.7052C21.7581 82.8263 21.8504 82.925 21.9699 83.0012C22.0895 83.0774 22.2191 83.1198 22.3579 83.1282C22.4961 83.1333 22.6298 83.0996 22.7587 83.0269C22.888 82.9543 23.0001 82.8427 23.0956 82.6926Z" fill="#003459"/>
<path d="M24.0123 83.2249C24.1242 83.0166 24.2647 82.8556 24.4331 82.7415C24.6025 82.6306 24.7844 82.5708 24.9779 82.5628C25.1737 82.5554 25.3617 82.6004 25.5423 82.6971C25.721 82.7929 25.8548 82.9151 25.9441 83.0626C26.0335 83.2104 26.0794 83.3602 26.082 83.5126L26.2819 83.1407L26.6243 83.3246L25.5288 85.3631L25.1865 85.1792L25.3913 84.7983C25.2598 84.8812 25.1065 84.9266 24.931 84.9343C24.7564 84.9404 24.5819 84.8963 24.407 84.8025C24.2245 84.7044 24.0847 84.5717 23.9879 84.4049C23.8889 84.2368 23.84 84.0494 23.8413 83.8427C23.8442 83.6373 23.9014 83.4313 24.0123 83.2249ZM25.7368 84.1554C25.8188 84.0028 25.8602 83.8523 25.8602 83.7042C25.8577 83.557 25.82 83.4242 25.748 83.3062C25.676 83.1883 25.5764 83.095 25.4494 83.0269C25.3244 82.9597 25.1933 82.9276 25.0563 82.9308C24.9213 82.935 24.7908 82.9774 24.6655 83.0584C24.5433 83.1384 24.4405 83.2558 24.3575 83.4104C24.2733 83.5672 24.2309 83.7196 24.2306 83.8678C24.2322 84.0169 24.2682 84.15 24.3383 84.267C24.4115 84.383 24.5105 84.4746 24.6356 84.5418C24.7625 84.6099 24.8947 84.6427 25.0316 84.6395C25.1698 84.6344 25.3016 84.5916 25.4269 84.5106C25.5504 84.4287 25.6535 84.3101 25.7368 84.1554Z" fill="#003459"/>
<path d="M28.2651 84.4364L27.7157 84.1838L27.1465 85.4206C27.0996 85.5228 27.0874 85.6054 27.1108 85.6681C27.1362 85.7317 27.2018 85.788 27.3082 85.8372L27.566 85.9558L27.4303 86.2502L27.1144 86.1049C26.9199 86.0156 26.7955 85.9037 26.7405 85.7694C26.6836 85.634 26.7026 85.4643 26.7968 85.2596L27.366 84.0227L27.0957 83.8983L27.2285 83.6097L27.4988 83.7341L27.7431 83.2031L28.0928 83.3641L27.8485 83.8951L28.3978 84.1481L28.2651 84.4364Z" fill="#003459"/>
<path d="M28.4936 85.4322C28.5804 85.212 28.7006 85.0355 28.8545 84.9025C29.0098 84.7723 29.1834 84.6919 29.3749 84.6611C29.5684 84.6309 29.7606 84.6534 29.9509 84.7282C30.1396 84.8025 30.2868 84.9079 30.3932 85.0442C30.4993 85.1805 30.5626 85.3242 30.5829 85.4749L30.7378 85.0821L31.0991 85.2245L30.2505 87.3775L29.8889 87.2351L30.0477 86.8326C29.9268 86.9304 29.7796 86.9934 29.6064 87.022C29.4338 87.0483 29.2554 87.0252 29.0709 86.9525C28.878 86.8767 28.7237 86.7613 28.608 86.6067C28.49 86.4511 28.4196 86.2708 28.3962 86.0657C28.375 85.8613 28.4074 85.6501 28.4936 85.4322ZM30.3151 86.1538C30.3788 85.9924 30.4019 85.8381 30.3852 85.6912C30.3653 85.5453 30.3125 85.418 30.227 85.3091C30.1415 85.2004 30.0319 85.1194 29.8976 85.0667C29.7655 85.0146 29.6318 84.9982 29.4958 85.0172C29.3621 85.0371 29.2377 85.0947 29.1226 85.1898C29.0104 85.2837 28.9224 85.4122 28.8581 85.5759C28.7928 85.7414 28.7687 85.8976 28.7858 86.0448C28.805 86.1927 28.8561 86.3206 28.9394 86.4286C29.0255 86.5353 29.1348 86.6147 29.2669 86.6668C29.401 86.7195 29.536 86.7365 29.6719 86.7172C29.8085 86.696 29.9345 86.6379 30.0493 86.543C30.1621 86.4472 30.2508 86.3174 30.3151 86.1538Z" fill="#003459"/>
<path d="M35.0074 87.5032C34.9878 87.5748 34.9627 87.6484 34.9325 87.7243L33.1473 87.2332C33.1 87.4562 33.1276 87.6481 33.2305 87.8095C33.3353 87.9715 33.4857 88.0795 33.6811 88.1331C33.8396 88.1769 33.9833 88.1765 34.1122 88.1328C34.2395 88.0862 34.342 88.0068 34.4195 87.895L34.82 88.0052C34.7007 88.2013 34.5333 88.3421 34.3182 88.4279C34.1009 88.5131 33.8599 88.5192 33.595 88.4459C33.3822 88.3874 33.2054 88.2874 33.0643 88.1457C32.9229 88.0062 32.8297 87.8358 32.7847 87.6343C32.7374 87.4321 32.7455 87.2158 32.8088 86.9856C32.8721 86.7555 32.9734 86.5662 33.1125 86.4174C33.2536 86.2692 33.4208 86.1715 33.6136 86.1245C33.8071 86.075 34.0125 86.0802 34.2295 86.1396C34.44 86.1975 34.6139 86.2955 34.7512 86.4338C34.8884 86.572 34.9794 86.7336 35.0244 86.9191C35.0691 87.1043 35.0636 87.299 35.0074 87.5032ZM34.6445 87.319C34.6834 87.1779 34.6853 87.0477 34.6503 86.9281C34.6149 86.8108 34.5513 86.7105 34.46 86.6269C34.368 86.5456 34.2568 86.4868 34.1263 86.4511C33.9373 86.399 33.7615 86.4148 33.5982 86.4987C33.433 86.5816 33.3115 86.7259 33.234 86.931L34.6445 87.319Z" fill="#003459"/>
<path d="M37.1187 86.8098C37.3945 86.8664 37.6015 86.9959 37.7391 87.1988C37.8747 87.4013 37.9104 87.659 37.8465 87.9724L37.5726 89.3099L37.202 89.234L37.4649 87.9496C37.5109 87.7246 37.489 87.5395 37.399 87.3948C37.311 87.2528 37.1686 87.1615 36.9722 87.1213C36.7735 87.0808 36.6032 87.11 36.4611 87.2097C36.3184 87.3116 36.2229 87.4807 36.1744 87.7166L35.9179 88.9711L35.5405 88.894L36.0043 86.6266L36.3817 86.7038L36.3161 87.0249C36.4145 86.9256 36.5344 86.8568 36.6755 86.8192C36.8166 86.7812 36.9645 86.7783 37.1187 86.8098Z" fill="#003459"/>
<path d="M38.5881 88.2842C38.6189 88.0473 38.6928 87.8458 38.8098 87.6793C38.9288 87.5154 39.0786 87.3952 39.2589 87.319C39.4414 87.2428 39.642 87.219 39.8612 87.2476C40.1425 87.2843 40.3659 87.3839 40.5308 87.5462C40.696 87.7063 40.7921 87.912 40.8184 88.1627L40.4064 88.109C40.3868 87.9634 40.3254 87.8429 40.2219 87.7478C40.1206 87.6529 39.9863 87.5944 39.8188 87.5726C39.5999 87.544 39.4138 87.5957 39.2602 87.7278C39.1065 87.8599 39.012 88.0624 38.9767 88.3347C38.9407 88.6118 38.9799 88.8335 39.094 89.001C39.2081 89.1704 39.3746 89.2694 39.5938 89.2977C39.7613 89.3195 39.9059 89.2987 40.0277 89.235C40.1496 89.1714 40.2402 89.0698 40.2993 88.93L40.7114 88.9837C40.6204 89.2103 40.4732 89.3819 40.2694 89.4983C40.0657 89.6149 39.8265 89.6551 39.5517 89.6194C39.3328 89.5908 39.1448 89.5163 38.9879 89.396C38.833 89.2781 38.7192 89.1235 38.6466 88.9322C38.5762 88.7413 38.5566 88.5253 38.5881 88.2842Z" fill="#003459"/>
<path d="M43.3151 87.5861L43.6995 87.6108L43.552 89.9203L43.1676 89.8959L43.1894 89.5551C43.11 89.6673 43.003 89.7531 42.8683 89.8123C42.7314 89.8689 42.5845 89.8923 42.427 89.8823C42.2473 89.8708 42.0888 89.8235 41.9522 89.7403C41.8131 89.657 41.7067 89.5371 41.6331 89.3812C41.5594 89.2276 41.5292 89.0441 41.5431 88.8306L41.6292 87.4784L42.0104 87.5028L41.9272 88.8043C41.9127 89.0312 41.9587 89.2102 42.0657 89.3414C42.1727 89.47 42.3261 89.5407 42.526 89.5535C42.7304 89.5667 42.8963 89.514 43.0236 89.3957C43.1486 89.2774 43.2187 89.0968 43.2341 88.8538L43.3151 87.5861Z" fill="#003459"/>
<path d="M46.6925 88.6612C46.6931 88.7355 46.6893 88.8133 46.6809 88.8943L44.8295 88.911C44.8449 89.1382 44.9243 89.3157 45.0676 89.4426C45.2129 89.5696 45.3868 89.6323 45.5896 89.6307C45.7542 89.6291 45.8921 89.5895 46.004 89.5121C46.1136 89.4324 46.1904 89.3279 46.2344 89.199L46.65 89.1955C46.589 89.4166 46.4668 89.5979 46.2833 89.7393C46.0975 89.8807 45.8674 89.9524 45.5925 89.955C45.3717 89.9569 45.1744 89.9093 44.9998 89.8116C44.8256 89.7165 44.689 89.578 44.5906 89.3963C44.49 89.2147 44.4386 89.0045 44.4364 88.766C44.4341 88.5272 44.4798 88.3173 44.5726 88.1364C44.6678 87.9554 44.8018 87.8156 44.9744 87.7172C45.147 87.6166 45.3457 87.5652 45.571 87.5629C45.7896 87.561 45.9837 87.6076 46.1534 87.7031C46.3231 87.7985 46.4549 87.929 46.5488 88.0949C46.6426 88.2607 46.6905 88.4494 46.6925 88.6612ZM46.2929 88.5838C46.2916 88.4375 46.2579 88.3115 46.1917 88.2061C46.1255 88.1032 46.0368 88.0239 45.9259 87.9686C45.815 87.9155 45.6919 87.8895 45.5569 87.8908C45.3608 87.8924 45.1959 87.956 45.0622 88.0811C44.9259 88.2061 44.8488 88.3781 44.8301 88.597L46.2929 88.5838Z" fill="#003459"/>
<path d="M48.5334 87.4163C48.814 87.3951 49.0487 87.4633 49.2367 87.6205C49.4225 87.778 49.5276 88.0165 49.5517 88.3353L49.6545 89.6962L49.2775 89.7248L49.1785 88.4179C49.1612 88.1887 49.0895 88.0171 48.9635 87.902C48.8397 87.7895 48.678 87.7407 48.4778 87.7558C48.2756 87.7712 48.1197 87.8461 48.0104 87.9811C47.9012 88.118 47.8555 88.3067 47.8735 88.5471L47.9703 89.8239L47.5862 89.8528L47.4116 87.5452L47.7957 87.516L47.8205 87.8429C47.888 87.7204 47.9844 87.6214 48.1098 87.5465C48.2351 87.4716 48.3762 87.4282 48.5334 87.4163Z" fill="#003459"/>
<path d="M51.4415 87.4414L50.8424 87.5237L51.0282 88.8727C51.0436 88.9843 51.078 89.0601 51.131 89.1006C51.1867 89.1408 51.2725 89.1527 51.3885 89.1366L51.6698 89.098L51.7138 89.4192L51.3692 89.4667C51.1574 89.496 50.9922 89.4687 50.8736 89.3851C50.753 89.3015 50.6772 89.1485 50.6467 88.9251L50.4609 87.5764L50.1661 87.6169L50.123 87.3022L50.4175 87.2617L50.3378 86.6828L50.7193 86.6301L50.799 87.2093L51.3982 87.1267L51.4415 87.4414Z" fill="#003459"/>
<path d="M52.5515 87.3051C52.5945 87.1624 52.6714 87.0445 52.7829 86.9512C52.8915 86.8561 53.0346 86.7925 53.212 86.7603L53.2827 87.1528L53.1831 87.1708C52.7597 87.247 52.5894 87.5147 52.672 87.9734L52.8957 89.2138L52.5167 89.2819L52.106 87.0046L52.4849 86.9361L52.5515 87.3051Z" fill="#003459"/>
<path d="M54.0135 87.8001C53.9579 87.5703 53.955 87.3566 54.0048 87.1595C54.0572 86.9638 54.1527 86.7982 54.2915 86.6626C54.4326 86.5266 54.6027 86.4347 54.8019 86.3865C54.999 86.3389 55.1799 86.3405 55.3452 86.391C55.5104 86.4415 55.6444 86.5225 55.7479 86.6343L55.6489 86.2239L56.0266 86.1326L56.5695 88.3822L56.1918 88.4735L56.0905 88.0531C56.0478 88.2026 55.9636 88.3385 55.8379 88.4616C55.7119 88.5825 55.5525 88.6661 55.3599 88.7127C55.1584 88.7612 54.9659 88.7557 54.7823 88.6956C54.5966 88.6362 54.4352 88.5291 54.2983 88.3745C54.1636 88.2193 54.0688 88.028 54.0135 87.8001ZM55.9192 87.3437C55.8784 87.1753 55.809 87.0355 55.7103 86.9249C55.61 86.8169 55.4937 86.7433 55.3615 86.7034C55.2291 86.6636 55.0928 86.6607 54.9527 86.6941C54.8148 86.7275 54.6956 86.7909 54.5953 86.8847C54.4972 86.9779 54.4284 87.0965 54.3892 87.2402C54.3516 87.3813 54.3532 87.5375 54.3944 87.7082C54.4362 87.8811 54.5062 88.0229 54.6049 88.1338C54.7055 88.2437 54.8212 88.3192 54.9514 88.3594C55.0832 88.397 55.2182 88.3993 55.3561 88.3659C55.4962 88.3321 55.6164 88.2681 55.7167 88.1746C55.8164 88.0788 55.8858 87.9589 55.9253 87.8149C55.9626 87.6716 55.9607 87.5144 55.9192 87.3437Z" fill="#003459"/>
<path d="M59.7445 87.4038C59.5767 87.4629 59.4167 87.4871 59.2649 87.4758C59.111 87.4655 58.9776 87.4228 58.8654 87.3479C58.7529 87.2727 58.6693 87.1708 58.6144 87.0422L58.9872 86.9107C59.0361 87.0152 59.118 87.0856 59.2334 87.1216C59.3517 87.1589 59.4851 87.1512 59.6336 87.0988C59.7718 87.0502 59.8692 86.9811 59.9264 86.8921C59.9856 86.8021 59.9991 86.7114 59.9666 86.6198C59.9329 86.5244 59.8654 86.4681 59.7641 86.4514C59.6625 86.4347 59.515 86.4353 59.3205 86.4533C59.1441 86.4678 58.9959 86.4707 58.8763 86.463C58.7587 86.4543 58.6488 86.4202 58.5465 86.3604C58.4437 86.2987 58.3675 86.1978 58.318 86.0577C58.2785 85.9452 58.2753 85.8314 58.3093 85.7169C58.3424 85.6003 58.4106 85.4926 58.5144 85.3939C58.616 85.2962 58.7455 85.2194 58.9027 85.1641C59.145 85.0789 59.362 85.0715 59.5542 85.1426C59.7464 85.2136 59.885 85.3531 59.9705 85.562L59.6069 85.6899C59.5581 85.5781 59.48 85.5019 59.3726 85.4608C59.2637 85.4228 59.1393 85.4283 58.9988 85.4778C58.8693 85.5234 58.7757 85.5874 58.7188 85.6694C58.6597 85.7523 58.6462 85.8394 58.6783 85.9307C58.7037 86.003 58.7478 86.0532 58.8101 86.0815C58.8734 86.1117 58.9448 86.1284 59.0245 86.1313C59.1052 86.1364 59.2142 86.1338 59.3514 86.1239C59.5237 86.111 59.6658 86.1075 59.7776 86.1133C59.8904 86.1213 59.9968 86.1531 60.0978 86.2084C60.1971 86.2666 60.2713 86.3624 60.3205 86.4954C60.3623 86.6144 60.3671 86.7333 60.335 86.8522C60.3006 86.9718 60.2337 87.0801 60.1341 87.1772C60.0315 87.273 59.902 87.3485 59.7445 87.4038Z" fill="#003459"/>
<path d="M62.0102 83.9616L62.3648 83.8115L63.2677 85.9423L62.9131 86.0924L62.78 85.7784C62.7595 85.9143 62.7019 86.039 62.6081 86.1522C62.5113 86.264 62.3902 86.3508 62.2452 86.4122C62.0793 86.4826 61.9164 86.5112 61.7566 86.498C61.5949 86.4858 61.4461 86.4267 61.3108 86.3203C61.1761 86.2158 61.0668 86.0654 60.9836 85.868L60.4548 84.6209L60.8065 84.4717L61.3153 85.6726C61.404 85.8822 61.5255 86.0213 61.6795 86.0905C61.8328 86.1576 62.0015 86.1522 62.186 86.0741C62.3747 85.994 62.4994 85.8728 62.5602 85.7099C62.6187 85.5482 62.6007 85.355 62.5059 85.1313L62.0102 83.9616Z" fill="#003459"/>
<path d="M64.8179 83.8684C64.7022 83.6595 64.6417 83.4535 64.6372 83.25C64.6356 83.0475 64.6845 82.8617 64.7841 82.6933C64.8857 82.5236 65.0329 82.385 65.2261 82.278C65.4742 82.1404 65.7131 82.0877 65.9422 82.1202C66.1705 82.1507 66.3697 82.259 66.5401 82.4455L66.1766 82.647C66.0744 82.5416 65.9532 82.4811 65.8134 82.466C65.6755 82.4496 65.5327 82.4828 65.3852 82.5647C65.1924 82.6718 65.0731 82.8241 65.0281 83.0215C64.9831 83.2191 65.0275 83.438 65.1609 83.6781C65.2965 83.9224 65.4598 84.0777 65.651 84.1442C65.8436 84.2127 66.0361 84.1931 66.2293 84.086C66.3771 84.0041 66.481 83.9012 66.5411 83.7778C66.6012 83.6544 66.6137 83.5187 66.5784 83.3709L66.9416 83.1693C67.0033 83.4056 66.9866 83.6312 66.8921 83.8459C66.7976 84.0606 66.6291 84.2352 66.3868 84.3699C66.1939 84.4769 65.9985 84.5286 65.8005 84.5248C65.6057 84.5219 65.4225 84.4653 65.2502 84.3551C65.0802 84.2435 64.9359 84.0812 64.8179 83.8684Z" fill="#003459"/>
<path d="M67.3054 82.4445C67.1768 82.2462 67.1029 82.0456 67.0842 81.8428C67.0685 81.6409 67.1038 81.4529 67.1896 81.279C67.2774 81.1038 67.4072 80.9605 67.5792 80.8492C67.7492 80.739 67.9206 80.6802 68.0932 80.6728C68.2658 80.6657 68.4194 80.6975 68.5538 80.7686L68.324 80.4143L68.6499 80.2029L69.9096 82.1443L69.5836 82.3558L69.3483 81.9929C69.3577 82.1478 69.3236 82.3043 69.2458 82.4622C69.1671 82.6181 69.0446 82.7499 68.8781 82.8579C68.7042 82.9707 68.5207 83.0292 68.3278 83.0337C68.1327 83.0395 67.945 82.9919 67.7644 82.8916C67.5856 82.79 67.4326 82.6409 67.3054 82.4445ZM68.9511 81.3809C68.8566 81.2353 68.7447 81.127 68.6148 81.0553C68.4843 80.9868 68.3503 80.9556 68.2121 80.9621C68.0739 80.9685 67.9444 81.0109 67.8235 81.0893C67.7046 81.1665 67.6133 81.2661 67.55 81.3876C67.4886 81.5082 67.4632 81.6428 67.4738 81.7917C67.485 81.9373 67.5384 82.0838 67.6342 82.2311C67.7309 82.3802 67.8444 82.4908 67.9739 82.5625C68.1054 82.6329 68.2394 82.6653 68.3757 82.6602C68.5126 82.6518 68.6406 82.6091 68.7595 82.5319C68.8804 82.4535 68.9726 82.3535 69.0359 82.2317C69.098 82.1083 69.1237 81.972 69.1134 81.8232C69.1009 81.6756 69.0469 81.5281 68.9511 81.3809Z" fill="#003459"/>
<path d="M71.492 77.9419C71.6338 77.8307 71.7832 77.7603 71.9407 77.7311C72.0963 77.7031 72.2538 77.723 72.4126 77.7902C72.5681 77.8571 72.7121 77.9744 72.8443 78.1428L73.6874 79.2161L73.3871 79.452L72.5775 78.4212C72.4354 78.2405 72.2821 78.1364 72.1169 78.1084C71.9513 78.0837 71.7925 78.1313 71.6402 78.2508C71.4827 78.3746 71.3975 78.5234 71.3846 78.6966C71.3702 78.8715 71.4374 79.0534 71.5862 79.2431L72.375 80.2472L72.0748 80.4831L71.2651 79.4523C71.123 79.2717 70.9697 79.1675 70.8045 79.1396C70.6389 79.1148 70.4802 79.1624 70.3278 79.282C70.1703 79.4057 70.0851 79.5545 70.0723 79.7278C70.0578 79.9026 70.125 80.0846 70.2738 80.2742L71.0626 81.2784L70.7598 81.5162L69.3301 79.6966L69.6329 79.4584L69.8395 79.7217C69.8248 79.5786 69.8476 79.442 69.908 79.3112C69.9688 79.1804 70.0591 79.0679 70.1796 78.9731C70.3336 78.8519 70.4962 78.7802 70.6675 78.7574C70.8385 78.7346 71.0057 78.7667 71.1683 78.8535C71.1182 78.6838 71.1236 78.5176 71.185 78.355C71.2461 78.1923 71.3486 78.0544 71.492 77.9419Z" fill="#003459"/>
<path d="M72.771 76.4042C72.7177 76.4527 72.6553 76.4759 72.5836 76.474C72.5123 76.4688 72.4522 76.4399 72.4036 76.3865C72.3535 76.3316 72.3303 76.2689 72.3335 76.1991C72.3371 76.1258 72.3654 76.0651 72.4187 76.0166C72.4705 75.9696 72.5319 75.9487 72.6035 75.9536C72.6736 75.9568 72.7334 75.986 72.7835 76.041C72.8321 76.0943 72.8552 76.1567 72.8536 76.2287C72.8504 76.2988 72.8228 76.3573 72.771 76.4042ZM72.878 76.8182L73.1632 76.5591L74.7198 78.2717L74.4347 78.5308L72.878 76.8182Z" fill="#003459"/>
<path d="M74.5743 75.1031C74.773 74.9035 74.9948 74.8019 75.24 74.798C75.4836 74.7958 75.7189 74.9076 75.9455 75.1333L76.913 76.0963L76.6463 76.3644L75.717 75.4396C75.554 75.2776 75.3875 75.1944 75.2172 75.1899C75.05 75.1854 74.8958 75.2545 74.7543 75.3965C74.6113 75.5402 74.5425 75.699 74.5473 75.8726C74.5541 76.0478 74.6428 76.2204 74.8138 76.3901L75.7215 77.2936L75.4499 77.5665L73.8093 75.934L74.0813 75.6611L74.3133 75.8922C74.2844 75.7552 74.2928 75.6174 74.3387 75.4788C74.3847 75.3403 74.4631 75.2149 74.5743 75.1031Z" fill="#003459"/>
<path d="M78.2733 74.591C78.1325 74.7553 77.9673 74.8716 77.7777 74.9404C77.5897 75.0108 77.3936 75.0249 77.1892 74.9828C76.986 74.9391 76.7941 74.8398 76.6128 74.6846C76.4335 74.5306 76.3075 74.3557 76.2352 74.16C76.1657 73.9639 76.1525 73.7669 76.1947 73.5689C76.2352 73.3693 76.3268 73.1867 76.4692 73.0205C76.6128 72.8531 76.7797 72.7348 76.969 72.6663C77.1583 72.5943 77.355 72.5776 77.5594 72.6162C77.7635 72.6547 77.9564 72.7518 78.1377 72.9074C78.319 73.0629 78.4443 73.2401 78.5138 73.4393C78.5832 73.6386 78.596 73.8379 78.552 74.0378C78.5099 74.2391 78.417 74.4236 78.2733 74.591ZM78.0168 74.3712C78.1062 74.267 78.166 74.1474 78.1955 74.0124C78.2267 73.8791 78.2171 73.7418 78.1666 73.6001C78.1174 73.4599 78.022 73.3291 77.8802 73.2076C77.7401 73.0874 77.597 73.0122 77.4508 72.9816C77.3049 72.9543 77.1692 72.9639 77.0432 73.0102C76.9175 73.0597 76.8102 73.1366 76.7205 73.241C76.6283 73.3487 76.5678 73.4676 76.5395 73.5975C76.5145 73.7273 76.527 73.8611 76.5775 73.9996C76.6312 74.1378 76.7282 74.2667 76.868 74.3869C77.0117 74.51 77.1548 74.5872 77.2978 74.6177C77.4408 74.6514 77.5745 74.6444 77.6989 74.5965C77.8217 74.5505 77.9278 74.4753 78.0168 74.3712Z" fill="#003459"/>
<path d="M79.3993 71.2347C79.2048 71.1003 79.0602 70.9428 78.966 70.7625C78.8747 70.5815 78.8355 70.3945 78.8487 70.201C78.8631 70.0055 78.9287 69.8236 79.0454 69.6552C79.1608 69.4884 79.2967 69.3688 79.4533 69.2965C79.6101 69.2241 79.7641 69.1952 79.9158 69.2097L79.5684 68.9696L79.7895 68.6497L81.6933 69.9657L81.4722 70.2852L81.1167 70.0393C81.1842 70.1791 81.2121 70.3366 81.2006 70.5121C81.1871 70.6863 81.1241 70.8547 81.0112 71.018C80.8933 71.1884 80.7461 71.3125 80.5693 71.3899C80.3912 71.4693 80.1996 71.4973 79.9942 71.4732C79.7905 71.4471 79.5921 71.3678 79.3993 71.2347ZM80.5162 69.6246C80.3735 69.526 80.2286 69.4684 80.0814 69.4514C79.9348 69.4376 79.7988 69.4601 79.6735 69.5186C79.5481 69.5771 79.4446 69.6658 79.3626 69.7841C79.282 69.9008 79.2354 70.0274 79.2231 70.1643C79.2122 70.299 79.2399 70.4334 79.3064 70.5668C79.3723 70.6973 79.4774 70.8123 79.6224 70.9123C79.7686 71.0135 79.9155 71.0724 80.0624 71.0891C80.2109 71.1042 80.3472 71.0833 80.4712 71.0267C80.5947 70.9669 80.6969 70.8785 80.7776 70.7619C80.8595 70.6432 80.9068 70.5156 80.9187 70.379C80.929 70.2411 80.901 70.1055 80.8348 69.9718C80.767 69.84 80.6609 69.7243 80.5162 69.6246Z" fill="#003459"/>
<path d="M81.8935 67.3852C81.6839 67.2711 81.5226 67.1294 81.4094 66.9603C81.2995 66.7903 81.2413 66.6071 81.2352 66.4113C81.2301 66.2136 81.2802 66.0179 81.3857 65.8241C81.5213 65.5749 81.6949 65.4023 81.9057 65.3069C82.1147 65.2104 82.3409 65.195 82.5846 65.2612L82.3859 65.6261C82.2429 65.5917 82.1085 65.6058 81.9822 65.6678C81.8572 65.728 81.7543 65.8321 81.6737 65.9806C81.5682 66.1744 81.5493 66.3669 81.6171 66.5579C81.6849 66.7488 81.8395 66.9098 82.0809 67.0413C82.3262 67.175 82.5473 67.2184 82.7443 67.1718C82.9436 67.1265 83.096 67.0066 83.2014 66.8128C83.2821 66.6643 83.3149 66.5219 83.2998 66.3856C83.2843 66.249 83.222 66.1278 83.113 66.0221L83.3117 65.6572C83.4904 65.8237 83.5971 66.023 83.6324 66.2551C83.6678 66.4872 83.6189 66.7247 83.4865 66.968C83.3811 67.1618 83.2438 67.3103 83.0748 67.4132C82.9089 67.5151 82.7238 67.5656 82.519 67.5646C82.3155 67.5614 82.1069 67.5019 81.8935 67.3852Z" fill="#003459"/>
<path d="M83.2302 64.8501C83.0152 64.7518 82.8454 64.6219 82.7211 64.4609C82.5995 64.2989 82.5285 64.1211 82.5079 63.9283C82.4883 63.7335 82.5211 63.5429 82.6063 63.3564C82.6908 63.1723 82.804 63.0308 82.9457 62.9322C83.0875 62.8335 83.2344 62.7782 83.3861 62.766L83.002 62.5902L83.164 62.2369L85.2681 63.2009L85.1061 63.5541L84.7129 63.3738C84.8039 63.4998 84.8589 63.6499 84.8782 63.8248C84.8952 63.9987 84.8624 64.1754 84.7798 64.3558C84.6937 64.5441 84.5699 64.692 84.4092 64.7993C84.2475 64.9086 84.0637 64.9694 83.8576 64.9816C83.6522 64.9916 83.4433 64.9478 83.2302 64.8501ZM84.0495 63.0701C83.8917 62.9977 83.739 62.9662 83.5912 62.9752C83.4443 62.9874 83.3144 63.0331 83.2013 63.1125C83.0881 63.1919 83.0013 63.2973 82.9416 63.4284C82.8824 63.5573 82.8586 63.6904 82.8705 63.8267C82.883 63.9614 82.9338 64.0887 83.0226 64.2086C83.1103 64.3256 83.2337 64.4207 83.3935 64.494C83.5552 64.5682 83.7101 64.6007 83.8579 64.5914C84.0068 64.5801 84.1373 64.5361 84.2494 64.4586C84.3607 64.3783 84.4458 64.2735 84.505 64.1446C84.5651 64.0134 84.5892 63.8797 84.5773 63.7428C84.5635 63.6052 84.5124 63.4763 84.4237 63.3564C84.334 63.2385 84.2093 63.143 84.0495 63.0701Z" fill="#003459"/>
<path d="M85.9719 61.4874C85.9089 61.6539 85.8244 61.7914 85.718 61.9007C85.611 62.0119 85.4924 62.0862 85.3625 62.1238C85.2326 62.1614 85.1009 62.1595 84.9671 62.1186L85.1073 61.749C85.2188 61.7792 85.3252 61.7615 85.4268 61.6966C85.5312 61.6304 85.6116 61.5234 85.6675 61.3758C85.7193 61.2389 85.7296 61.12 85.6978 61.0187C85.6669 60.9155 85.6061 60.8467 85.5158 60.8127C85.421 60.7767 85.3345 60.7921 85.2561 60.859C85.178 60.9258 85.0832 61.0393 84.972 61.1993C84.8691 61.3433 84.7762 61.4587 84.693 61.5452C84.6104 61.6294 84.5136 61.6918 84.4021 61.7313C84.2886 61.7702 84.1623 61.7635 84.0234 61.7107C83.9119 61.6686 83.8232 61.5976 83.7573 61.498C83.6895 61.3977 83.6512 61.2758 83.6425 61.1331C83.6332 60.9923 83.658 60.8439 83.7171 60.688C83.8081 60.4479 83.9424 60.2772 84.1202 60.1759C84.2982 60.0747 84.4946 60.0586 84.7094 60.128L84.5728 60.4884C84.4558 60.4536 84.3471 60.4642 84.2465 60.5202C84.1472 60.579 84.0713 60.6777 84.0186 60.8168C83.9701 60.9454 83.9588 61.0579 83.9849 61.1543C84.0103 61.253 84.0681 61.3196 84.1584 61.3536C84.2301 61.3806 84.2966 61.3794 84.3587 61.3501C84.4226 61.3212 84.4815 61.2775 84.5351 61.218C84.5911 61.1595 84.6592 61.0746 84.7399 60.9634C84.8411 60.8236 84.9299 60.7127 85.0067 60.6307C85.0854 60.5497 85.1783 60.4887 85.2857 60.4472C85.394 60.4086 85.5152 60.4138 85.6486 60.462C85.7665 60.5067 85.8604 60.5796 85.9305 60.6806C85.9999 60.7837 86.0394 60.9049 86.0497 61.0438C86.0568 61.1839 86.0311 61.3318 85.9719 61.4874Z" fill="#003459"/>
<path d="M85.3628 59.606C85.1365 59.5369 84.951 59.4308 84.8064 59.2878C84.6646 59.1432 84.5705 58.9767 84.5245 58.7883C84.4792 58.5977 84.4862 58.4045 84.546 58.2084C84.6052 58.0146 84.6984 57.8594 84.826 57.743C84.9533 57.6263 85.0915 57.5521 85.2403 57.5196L84.8363 57.3962L84.9497 57.0246L87.1631 57.7006L87.0496 58.0722L86.636 57.9458C86.743 58.0587 86.8172 58.2001 86.8597 58.3708C86.8995 58.5408 86.8905 58.7205 86.8327 58.9101C86.7722 59.1084 86.6694 59.2711 86.5244 59.399C86.3788 59.5289 86.2046 59.6134 86.0021 59.6526C85.7999 59.6899 85.5868 59.6742 85.3628 59.606ZM85.9381 57.7327C85.7723 57.682 85.6167 57.671 85.4714 57.6996C85.3277 57.7311 85.205 57.7938 85.1031 57.8877C85.0015 57.9815 84.9295 58.0972 84.8874 58.2351C84.8459 58.3708 84.8401 58.5058 84.87 58.6395C84.9006 58.7713 84.9678 58.8905 85.0716 58.9976C85.1741 59.1017 85.3091 59.1795 85.4772 59.2309C85.6472 59.283 85.8051 59.2946 85.9504 59.2659C86.0963 59.2351 86.2197 59.174 86.321 59.0824C86.4203 58.9879 86.491 58.8728 86.5321 58.7372C86.5742 58.5993 86.5804 58.4633 86.5508 58.3296C86.519 58.1949 86.4508 58.0741 86.347 57.9671C86.2425 57.8623 86.1062 57.7842 85.9381 57.7327Z" fill="#003459"/>
</g>
</g>
</g>
</g>
</g>
</g>
<defs>
<clipPath id="clip0_94_994">
<rect width="90" height="90" fill="white"/>
</clipPath>
<clipPath id="clip1_94_994">
<rect width="89.91" height="89.91" fill="white" transform="translate(0.0449219 0.0449829)"/>
</clipPath>
<clipPath id="clip2_94_994">
<rect width="89.91" height="89.91" fill="white" transform="translate(0.0449219 0.0449829)"/>
</clipPath>
<clipPath id="clip3_94_994">
<rect width="89.91" height="89.91" fill="white" transform="translate(0.0449219 0.0449829)"/>
</clipPath>
<clipPath id="clip4_94_994">
<rect width="89.91" height="89.91" fill="white" transform="translate(0.0449219 0.0449829)"/>
</clipPath>
<clipPath id="clip5_94_994">
<rect width="89.91" height="89.91" fill="white" transform="translate(0.0449219 0.0449829)"/>
</clipPath>
<clipPath id="clip6_94_994">
<rect width="52.98" height="52.98" fill="white" transform="translate(18.51 18.51)"/>
</clipPath>
<clipPath id="clip7_94_994">
<rect width="37.086" height="37.086" fill="white" transform="translate(26.457 26.457)"/>
</clipPath>
</defs>
</svg>
