<svg width="100" height="100" viewBox="0 0 100 100" fill="none" xmlns="http://www.w3.org/2000/svg">
<g clip-path="url(#clip0_94_894)">
<g clip-path="url(#clip1_94_894)">
<g clip-path="url(#clip2_94_894)">
<g clip-path="url(#clip3_94_894)">
<g clip-path="url(#clip4_94_894)">
<g clip-path="url(#clip5_94_894)">
<path d="M50.0001 79.315C66.1903 79.315 79.3151 66.1902 79.3151 50C79.3151 33.8097 66.1903 20.6849 50.0001 20.6849C33.8098 20.6849 20.6851 33.8097 20.6851 50C20.6851 66.1902 33.8098 79.315 50.0001 79.315Z" fill="white"/>
<g clip-path="url(#clip6_94_894)">
<path d="M42.8367 43.5126C44.059 42.9558 45.3234 42.3807 46.6521 42.011C47.9569 41.6481 50.6512 40.8945 50.1569 38.6671C51.5044 38.604 54.4069 38.4931 56.8243 38.571C58.5147 38.6262 62.5542 38.5665 63.5797 36.8265C63.842 36.3817 64.024 35.6332 63.4029 34.5923C62.9194 33.7813 62.1271 33.7449 61.5486 33.7187C60.8655 33.688 60.1898 33.6817 59.3849 33.6817C58.4197 33.6817 57.4266 33.5475 56.4654 33.4172L56.2868 33.3933C54.2374 33.1169 52.1124 32.7586 49.9704 32.3274C49.1405 32.1608 48.3135 31.9526 47.5132 31.7518C45.0936 31.1438 42.5892 30.5158 39.8545 31.0039C38.3091 31.2797 36.8615 31.8701 35.4612 32.4412L34.8059 32.7074C33.6058 33.1897 32.359 33.6351 31.1543 34.0656C30.6857 34.2329 30.2175 34.4001 29.7506 34.5696C29.4554 34.6771 29.3029 35.0036 29.4104 35.2988C29.5179 35.594 29.8439 35.747 30.1396 35.6389C30.6043 35.47 31.0707 35.3033 31.5371 35.1367C32.7526 34.7027 34.0096 34.2539 35.2303 33.7631L35.8906 33.4946C37.2364 32.9457 38.6276 32.3786 40.0547 32.1238C42.5517 31.6773 44.8274 32.2495 47.2362 32.8547C48.049 33.0589 48.8891 33.2699 49.7457 33.4428C51.9122 33.8785 54.0617 34.2414 56.1349 34.5207L56.3135 34.5446C57.3111 34.6794 58.3435 34.8187 59.3849 34.8193C60.1744 34.8193 60.8353 34.8255 61.4963 34.8551C62.085 34.8819 62.2784 34.9274 62.4262 35.1754C62.8318 35.8556 62.6572 36.1514 62.5997 36.2487C62.0537 37.1741 59.2416 37.5131 56.8612 37.434C54.0918 37.343 50.7126 37.4983 49.6661 37.5523C48.8658 36.4693 47.4785 36.4216 46.7482 36.5945L38.0742 37.9089C37.7636 37.9561 37.5503 38.2462 37.597 38.5562C37.6442 38.8668 37.9354 39.0818 38.2448 39.0334L46.9609 37.711C47.135 37.6723 48.6673 37.3731 49.0415 38.8719C49.2924 39.8758 48.1457 40.415 46.3148 40.9241C44.9321 41.3086 43.6267 41.903 42.3651 42.4774C41.7395 42.7618 41.0928 43.057 40.4523 43.3175C39.5775 43.6742 38.5616 44.0661 37.5725 44.2077C35.8787 44.4494 34.0978 44.3687 32.375 44.2896C31.5963 44.2538 30.7909 44.2174 30.0003 44.2105C29.6681 44.1963 29.4292 44.4602 29.4269 44.7742C29.4247 45.0882 29.6766 45.3453 29.9906 45.3481C30.7602 45.3549 31.5548 45.3908 32.3226 45.426C33.1986 45.4658 34.0893 45.5068 34.9834 45.5068C35.9009 45.5068 36.8217 45.4641 37.7335 45.3333C38.8506 45.1741 39.9444 44.7526 40.8817 44.3709C41.5432 44.1013 42.2007 43.8021 42.8367 43.5126Z" fill="white"/>
<path d="M70.6124 68.1622L70.3303 66.7897C69.1472 61.0387 67.496 55.3019 66.0405 50.3762C65.8727 49.808 65.706 49.2398 65.5411 48.671C65.4825 48.4697 65.3181 48.3166 65.1128 48.2729C64.9063 48.2291 64.6953 48.3019 64.5599 48.4623L61.7575 51.7823C61.4316 50.5599 61.162 49.5646 60.9908 48.9645C59.9528 45.3305 57.5434 45.2816 57.441 45.2816C57.441 45.2816 54.1079 45.2714 52.1393 45.2714C49.9131 45.2714 48.494 47.1262 48.4263 47.2166L46.2575 50.2613L38.9327 51.5587C38.6449 51.6099 38.4424 51.871 38.4646 52.1622C38.4754 52.2999 38.485 52.4813 38.497 52.6969C38.6727 55.8718 39.0709 58.8904 40.7801 59.4711C42.3898 60.0183 44.0927 60.169 45.7388 60.3152C46.0817 60.3454 46.4247 60.3755 46.766 60.4096C46.9025 61.9146 47.3433 66.5707 47.7312 68.2777C47.791 68.5416 48.0259 68.7202 48.2852 68.7207C48.3267 68.7207 48.3694 68.7162 48.4121 68.7065C48.7186 68.6366 48.9103 68.3323 48.8404 68.0257C48.4018 66.0958 47.8632 59.9063 47.8575 59.8437C47.8342 59.5735 47.6232 59.3574 47.3541 59.3272C46.8525 59.2715 46.3462 59.2266 45.8394 59.1822C44.2599 59.0423 42.6264 58.8978 41.1458 58.3938C40.3381 58.1191 39.8291 56.1813 39.6328 52.6337C39.6323 52.619 39.6311 52.6047 39.6306 52.5905L46.6847 51.3409C46.8314 51.3147 46.9622 51.2323 47.0493 51.1111L49.3443 47.8884C49.3557 47.8736 50.4751 46.4089 52.1393 46.4089C54.0954 46.4089 57.4 46.4192 57.429 46.4192C57.4973 46.4215 59.1064 46.5096 59.897 49.2773C60.0785 49.9132 60.3731 51.0013 60.7263 52.3306L57.5951 52.7822C56.11 52.9449 55.4531 54.1285 54.8735 55.1728C54.7085 55.4703 54.5527 55.7513 54.3832 56.001C54.3314 56.0772 54.2746 56.1761 54.2131 56.2848C54.1358 56.4213 53.9748 56.7057 53.9196 56.7495C53.8866 56.7586 53.8554 56.7711 53.8246 56.7859C53.7746 56.8103 52.5898 57.3865 51.7702 57.9326C51.5995 58.0463 51.5034 58.2431 51.5188 58.4479C51.5313 58.6202 51.8686 62.6785 55.0157 63.0932C56.8768 63.3383 58.2009 63.4026 58.8857 63.4179L59.3675 68.6542C59.3942 68.9494 59.6422 69.1707 59.9334 69.1707C59.9505 69.1707 59.9687 69.1701 59.9863 69.1684C60.2991 69.1399 60.5295 68.8629 60.4999 68.5495L59.971 62.7997C59.9437 62.5016 59.6849 62.2753 59.3908 62.2838C59.3749 62.2838 57.8255 62.3156 55.1641 61.9653C53.3594 61.7281 52.8327 59.5354 52.6962 58.6913C53.3423 58.2954 54.1159 57.9098 54.2865 57.8262C54.737 57.6675 55.0049 57.1948 55.2022 56.8462C55.2472 56.7671 55.287 56.6949 55.3245 56.6391C55.5225 56.3474 55.6982 56.0311 55.8677 55.7245C56.4598 54.6586 56.879 54.0051 57.7379 53.9107L61.0198 53.4374L61.7501 53.3322C61.8883 53.3123 62.014 53.2423 62.1033 53.1365L62.1136 53.1246L64.7459 50.0059C64.8136 50.2369 64.8819 50.4678 64.9495 50.6982C66.3982 55.6017 68.042 61.3112 69.216 67.0189L69.4981 68.3908C69.5613 68.6986 69.861 68.8976 70.1693 68.8339C70.477 68.7708 70.6755 68.4699 70.6124 68.1622Z" fill="white"/>
</g>
</g>
<path d="M4.41703 38.2625C3.71525 38.023 3.15004 37.6741 2.7214 37.2157C2.29133 36.7542 2.01677 36.2237 1.89844 35.6249C1.77903 35.0282 1.82944 34.4076 2.0493 33.7626C2.33387 32.9279 2.77109 32.3098 3.36097 31.9072C3.95085 31.505 4.63439 31.3399 5.41195 31.4117L4.99832 32.6244C4.54608 32.5997 4.14318 32.7137 3.78961 32.9665C3.43604 33.2192 3.17471 33.5932 3.00597 34.089C2.78611 34.734 2.82901 35.3296 3.13503 35.8758C3.44105 36.4221 3.99946 36.8336 4.81028 37.1103C5.62824 37.3891 6.32751 37.4067 6.90845 37.1628C7.48938 36.919 7.88978 36.4746 8.10929 35.8297C8.27839 35.3342 8.30413 34.8823 8.18651 34.4744C8.06746 34.0633 7.81435 33.723 7.42718 33.4531L7.84081 32.2401C8.47179 32.6565 8.90258 33.2085 9.13424 33.8964C9.36555 34.5842 9.34159 35.3367 9.06274 36.1547C8.84288 36.7996 8.50325 37.3216 8.04387 37.7209C7.58412 38.1224 7.04287 38.3748 6.4201 38.4774C5.7959 38.5767 5.12809 38.5052 4.41703 38.2625Z" fill="white"/>
<path d="M12.5891 28.6858C12.2541 29.2678 11.8183 29.719 11.2806 30.04C10.7433 30.3611 10.1541 30.5162 9.51277 30.5055C8.8707 30.4916 8.22791 30.2996 7.58548 29.9296C6.94913 29.5635 6.46722 29.1027 6.13975 28.5471C5.80978 27.9901 5.65212 27.3981 5.66642 26.7703C5.6775 26.1437 5.85268 25.5352 6.19266 24.9446C6.53264 24.354 6.97058 23.8964 7.50683 23.5721C8.04237 23.2443 8.63153 23.082 9.27431 23.0849C9.9171 23.0877 10.5599 23.274 11.2027 23.644C11.8455 24.014 12.3292 24.4816 12.6541 25.0468C12.978 25.6088 13.1332 26.2084 13.1192 26.8451C13.1056 27.4818 12.9287 28.0952 12.5891 28.6858ZM11.6835 28.165C11.8973 27.7935 12.0103 27.3963 12.0228 26.9727C12.0342 26.5458 11.9245 26.1315 11.6932 25.7297C11.4608 25.33 11.0947 24.9864 10.5956 24.699C10.0962 24.4116 9.61608 24.2668 9.15455 24.2646C8.69266 24.2589 8.28511 24.3669 7.93226 24.5885C7.58048 24.808 7.29769 25.1033 7.08391 25.4748C6.86655 25.8526 6.75251 26.2466 6.74214 26.6567C6.73034 27.0689 6.84474 27.47 7.0857 27.86C7.32451 28.249 7.69345 28.5868 8.19287 28.8746C8.69874 29.1656 9.17958 29.3197 9.63539 29.3361C10.0901 29.3494 10.4912 29.2503 10.8377 29.0394C11.188 28.8278 11.4697 28.536 11.6835 28.165Z" fill="white"/>
<path d="M12.2814 16.5894C12.8524 15.9273 13.5145 15.5637 14.2681 15.4987C15.0217 15.434 15.7753 15.726 16.5289 16.3756L19.731 19.1355L18.9606 20.0293L15.8865 17.3798C15.3438 16.9122 14.8122 16.6906 14.2917 16.7149C13.7711 16.7356 13.3078 16.9816 12.9024 17.4521C12.492 17.9282 12.3147 18.4352 12.3705 18.9729C12.4262 19.5105 12.738 20.0239 13.3053 20.5126L16.3112 23.1034L15.5333 24.0057L10.0996 19.3225L10.8775 18.4202L11.6515 19.0873C11.5264 18.6686 11.5203 18.24 11.6336 17.8017C11.7466 17.3634 11.9629 16.9594 12.2814 16.5894Z" fill="white"/>
<path d="M24.3004 10.716C24.4395 10.8969 24.5761 11.095 24.7105 11.3109L20.1638 14.8051C20.6282 15.3392 21.1562 15.6299 21.7486 15.6771C22.3395 15.7221 22.884 15.5534 23.3827 15.1701C23.7921 14.8555 24.0591 14.4984 24.1846 14.0987C24.3122 13.6972 24.3094 13.295 24.1764 12.8918L25.1924 12.111C25.4591 12.7749 25.4963 13.4541 25.3036 14.1488C25.1095 14.8416 24.6737 15.4483 23.9962 15.9688C23.456 16.3838 22.8801 16.6337 22.2688 16.7181C21.6574 16.8025 21.0597 16.7153 20.4755 16.4564C19.8896 16.1958 19.3709 15.7715 18.919 15.1837C18.4671 14.5956 18.1882 13.9904 18.0821 13.3673C17.978 12.7427 18.047 12.1478 18.2891 11.5826C18.5293 11.0156 18.9268 10.5191 19.4806 10.0933C20.0208 9.67821 20.5896 9.42904 21.1862 9.34645C21.7815 9.26173 22.3503 9.33966 22.8922 9.58026C23.4328 9.81907 23.9022 10.1973 24.3004 10.716ZM23.175 11.268C22.8987 10.9084 22.5812 10.6596 22.2223 10.5219C21.863 10.3875 21.4955 10.3571 21.1194 10.4311C20.7415 10.5065 20.3865 10.6721 20.0551 10.927C19.5786 11.2934 19.289 11.7574 19.1867 12.3191C19.0845 12.8811 19.2164 13.4513 19.5818 14.0297L23.175 11.268Z" fill="white"/>
<path d="M26.3069 9.8967C25.9745 9.23389 25.8161 8.58896 25.8322 7.96119C25.8493 7.33056 26.0256 6.75999 26.3606 6.24984C26.6937 5.74076 27.1649 5.33356 27.7738 5.0279C28.562 4.63251 29.3074 4.49809 30.0099 4.62464C30.7124 4.7512 31.3159 5.11299 31.8199 5.7093L30.6745 6.28416C30.3692 5.94954 30.0021 5.74862 29.5731 5.6807C29.144 5.61313 28.6954 5.69643 28.2274 5.93131C27.6182 6.23697 27.2314 6.69171 27.0663 7.29588C26.9014 7.90006 27.0108 8.58503 27.3952 9.35044C27.7827 10.123 28.2692 10.6256 28.8541 10.8591C29.4393 11.0925 30.0364 11.0564 30.6456 10.7508C31.1135 10.5159 31.4485 10.212 31.6508 9.83878C31.8543 9.46198 31.9125 9.04192 31.8257 8.57788L32.9707 8.00338C33.1287 8.74269 33.049 9.43838 32.7319 10.0908C32.4148 10.7433 31.8696 11.2634 31.0971 11.651C30.4879 11.9566 29.8798 12.0907 29.2728 12.0535C28.6632 12.0174 28.1005 11.8175 27.5846 11.4543C27.0698 11.0875 26.644 10.5684 26.3069 9.8967Z" fill="white"/>
<path d="M37.2171 2.55185L35.4325 3.11527L36.7052 7.1468C36.8106 7.48142 36.9554 7.69414 37.1395 7.78566C37.3243 7.87968 37.5921 7.87146 37.9432 7.76063L38.7779 7.49716L39.0811 8.4574L38.0601 8.77987C37.4269 8.97971 36.9057 8.984 36.4957 8.79274C36.0885 8.60076 35.7796 8.17176 35.569 7.50538L34.2967 3.47385L33.4115 3.75341L33.1162 2.81819L34.0014 2.53863L33.4573 0.815116L34.593 0.456543L35.1372 2.18005L36.9218 1.61663L37.2171 2.55185Z" fill="white"/>
<path d="M39.936 4.60174C39.8274 3.87852 39.8778 3.22108 40.0876 2.62942C40.2996 2.03525 40.6392 1.54833 41.1069 1.16903C41.5741 0.789718 42.1236 0.552338 42.7553 0.457243C43.3745 0.363935 43.9336 0.416845 44.432 0.615616C44.9307 0.814386 45.3218 1.10003 45.606 1.47254L45.4115 0.179465L46.6041 0L47.6713 7.09352L46.4783 7.27299L46.2799 5.95381C46.1094 6.40247 45.8141 6.79787 45.3944 7.13964C44.9743 7.47891 44.457 7.69484 43.8424 7.78743C43.2132 7.88217 42.6202 7.81281 42.0635 7.58008C41.509 7.34699 41.0421 6.97126 40.6628 6.45288C40.2864 5.93701 40.044 5.31996 39.936 4.60174ZM45.9431 3.71336C45.8627 3.17818 45.6846 2.7288 45.4094 2.36451C45.1337 1.99807 44.797 1.73709 44.3987 1.58194C44.0005 1.42643 43.5808 1.3821 43.14 1.44823C42.7017 1.51401 42.3156 1.67739 41.9824 1.93765C41.652 2.20006 41.4089 2.54576 41.2531 2.97476C41.0972 3.4034 41.0593 3.88531 41.1397 4.42049C41.2216 4.96532 41.4007 5.42257 41.6767 5.79151C41.9527 6.16045 42.2873 6.42285 42.6806 6.57908C43.0767 6.73745 43.4942 6.78357 43.9325 6.71743C44.3733 6.65094 44.7612 6.48398 45.0958 6.2155C45.4308 5.94988 45.6757 5.59989 45.8309 5.16659C45.986 4.73295 46.0232 4.24853 45.9431 3.71336Z" fill="white"/>
<path d="M56.125 1.74314C56.4203 1.37313 56.8207 1.08748 57.3255 0.886569C57.8282 0.685296 58.3862 0.632028 59.0004 0.726766C59.6292 0.824006 60.1766 1.06282 60.6424 1.44427C61.1082 1.82536 61.4461 2.31371 61.6559 2.90859C61.8636 3.50097 61.9115 4.15841 61.8 4.88163C61.6892 5.5995 61.4446 6.21583 61.066 6.72991C60.6846 7.2465 60.2138 7.61973 59.6536 7.85032C59.0933 8.08055 58.4988 8.1474 57.87 8.05016C57.2658 7.95685 56.7531 7.73949 56.3317 7.39844C55.913 7.05488 55.6142 6.66163 55.434 6.21797L54.7129 10.8898L53.5356 10.7082L55.1494 0.25415L56.3267 0.435761L56.125 1.74314ZM60.5966 4.69573C60.6792 4.16091 60.6435 3.679 60.4894 3.24965C60.3353 2.82029 60.0908 2.47316 59.7565 2.2086C59.4219 1.94656 59.034 1.78139 58.5932 1.71347C58.1624 1.64697 57.7477 1.69059 57.3487 1.84467C56.9498 1.99839 56.6094 2.25901 56.327 2.62581C56.0446 2.99296 55.863 3.44019 55.7815 3.96751C55.6989 4.50233 55.7368 4.9871 55.8955 5.42253C56.0539 5.85761 56.3002 6.20868 56.6337 6.47537C56.9673 6.74493 57.3495 6.91295 57.7802 6.97945C58.221 7.04737 58.6411 7.0034 59.0404 6.84717C59.4394 6.69345 59.7776 6.43247 60.0547 6.0646C60.3321 5.69674 60.5126 5.24057 60.5966 4.69573Z" fill="white"/>
<path d="M70.4368 7.79527C70.3568 8.0087 70.261 8.22964 70.1487 8.45772L64.7787 6.44678C64.571 7.12317 64.6035 7.7252 64.8766 8.25323C65.1509 8.7784 65.5824 9.15127 66.1712 9.37185C66.6545 9.55274 67.0989 9.591 67.5046 9.48589C67.9125 9.38186 68.2529 9.16664 68.5249 8.8406L69.7247 9.28998C69.3025 9.86734 68.7455 10.2581 68.0541 10.4619C67.3634 10.6635 66.618 10.6142 65.8179 10.3149C65.1798 10.0761 64.6632 9.71934 64.2685 9.24529C63.8735 8.77125 63.6315 8.21748 63.5421 7.5847C63.4534 6.94978 63.5392 6.28483 63.7991 5.59057C64.059 4.8963 64.4255 4.33932 64.8985 3.91961C65.3736 3.50098 65.9148 3.24501 66.5222 3.15134C67.1307 3.05553 67.762 3.13025 68.4166 3.37514C69.0548 3.61395 69.5667 3.96501 69.9524 4.42798C70.3393 4.88844 70.5738 5.41218 70.656 5.99955C70.7393 6.58442 70.6664 7.18287 70.4368 7.79527ZM69.3733 7.13211C69.5324 6.7074 69.5756 6.30628 69.5027 5.92876C69.4269 5.55267 69.2582 5.22449 68.9965 4.94456C68.7323 4.66393 68.4045 4.45014 68.013 4.30357C67.4499 4.09264 66.903 4.09264 66.3721 4.30285C65.8412 4.51342 65.4268 4.92669 65.1294 5.54302L69.3733 7.13211Z" fill="white"/>
<path d="M75.4628 3.87134L76.5142 4.43154L71.9596 12.9812L70.9082 12.4213L75.4628 3.87134Z" fill="white"/>
<path d="M82.4551 11.6428L83.4153 12.3477L79.169 18.1292L78.2087 17.4243L78.8361 16.5702C78.4379 16.7314 78.0146 16.7747 77.5659 16.7003C77.1173 16.6256 76.6961 16.4436 76.3022 16.1544C75.8521 15.8237 75.5153 15.4337 75.2922 14.984C75.0706 14.5321 74.9934 14.0448 75.0606 13.5221C75.1271 12.9959 75.3566 12.4654 75.7495 11.9302L78.2362 8.54395L79.1843 9.24036L76.7909 12.499C76.3712 13.0703 76.1938 13.6144 76.2585 14.1317C76.3218 14.6508 76.6028 15.0934 77.1015 15.4594C77.6163 15.8377 78.1376 15.9764 78.6652 15.8759C79.1929 15.7755 79.6791 15.4223 80.1242 14.8166L82.4551 11.6428Z" fill="white"/>
<path d="M83.1094 17.0442C83.6546 16.5562 84.2319 16.2381 84.8415 16.0894C85.4546 15.9406 86.048 15.9574 86.6218 16.1398C87.1952 16.3224 87.6975 16.6546 88.1287 17.1361C88.5012 17.5522 88.7518 18.0259 88.8801 18.5565C89.0071 19.0852 88.9988 19.5832 88.8558 20.0505L91.684 17.5194L92.4884 18.4185L85.2701 24.8789L84.4654 23.9801L85.4707 23.0803C84.9945 23.1904 84.5 23.1657 83.9874 23.0059C83.4747 22.8425 83.0121 22.5304 82.5996 22.0696C82.1734 21.5938 81.9042 21.0579 81.7916 20.4627C81.679 19.8674 81.7355 19.269 81.9604 18.668C82.1852 18.0703 82.5681 17.529 83.1094 17.0442ZM87.1481 21.5791C87.5513 21.2184 87.8295 20.823 87.9828 20.3933C88.138 19.9618 88.1712 19.5371 88.0826 19.1188C87.9939 18.7005 87.8009 18.3252 87.5038 17.993C87.2081 17.6627 86.8599 17.4296 86.4595 17.2938C86.0588 17.1615 85.6365 17.1479 85.1922 17.253C84.7482 17.3578 84.3245 17.5909 83.9216 17.9516C83.5108 18.3191 83.227 18.7195 83.0697 19.1524C82.9128 19.5853 82.8766 20.0093 82.9621 20.4237C83.0472 20.8416 83.2374 21.2159 83.5334 21.5466C83.8308 21.8787 84.1833 22.1114 84.5909 22.2437C84.9966 22.3781 85.4235 22.391 85.8714 22.283C86.319 22.1747 86.7448 21.9402 87.1481 21.5791Z" fill="white"/>
<path d="M87.9162 29.567C87.5812 28.9854 87.41 28.3815 87.4021 27.7556C87.3946 27.1299 87.5562 26.5422 87.8876 25.9931C88.2222 25.4447 88.7109 24.9856 89.3533 24.6156C89.9893 24.2492 90.63 24.064 91.2753 24.0597C91.9223 24.054 92.514 24.2152 93.0492 24.5427C93.5858 24.867 94.0237 25.3242 94.3641 25.9148C94.704 26.5054 94.8796 27.1138 94.8907 27.7405C94.9053 28.3683 94.7498 28.9593 94.4245 29.5137C94.0992 30.0682 93.6151 30.5305 92.9727 30.9005C92.3302 31.2705 91.6828 31.4539 91.0304 31.451C90.3815 31.4489 89.7852 31.2819 89.2418 30.9502C88.698 30.6184 88.2565 30.1576 87.9162 29.567ZM88.8214 29.0458C89.0352 29.4169 89.3219 29.7143 89.6819 29.9377C90.0451 30.1622 90.4587 30.2752 90.9224 30.277C91.3847 30.2766 91.8655 30.1329 92.3649 29.8455C92.8644 29.5581 93.2308 29.2156 93.4642 28.8177C93.7013 28.4209 93.8124 28.0144 93.7981 27.5979C93.7849 27.1836 93.6716 26.7907 93.4578 26.4192C93.2404 26.0413 92.9569 25.745 92.6077 25.5301C92.257 25.3128 91.8526 25.2105 91.3943 25.2227C90.9381 25.2337 90.4605 25.3832 89.9611 25.6706C89.4552 25.962 89.0806 26.3005 88.8375 26.6863C88.5976 27.0731 88.4818 27.4692 88.49 27.875C88.4971 28.2843 88.6076 28.6743 88.8214 29.0458Z" fill="white"/>
<path d="M91.2484 36.9237C91.064 36.4071 90.9868 35.9106 91.0164 35.4347C91.0447 34.9618 91.1755 34.5496 91.409 34.1974C91.6403 33.8464 91.9567 33.5858 92.3588 33.4159L92.7718 34.5732C92.4461 34.7265 92.2266 34.9832 92.1129 35.3429C92.0024 35.7039 92.0292 36.1147 92.193 36.5748C92.3453 37.002 92.5598 37.3045 92.8361 37.4825C93.1132 37.663 93.3956 37.7017 93.6834 37.5991C93.9808 37.4929 94.1542 37.2823 94.2039 36.9666C94.2522 36.6542 94.2486 36.1966 94.1932 35.5942C94.1446 35.0476 94.1324 34.5918 94.1564 34.2271C94.1782 33.8628 94.2829 33.5196 94.4713 33.1972C94.6572 32.8754 94.9682 32.637 95.4047 32.4811C95.7494 32.3581 96.1019 32.3481 96.4629 32.4507C96.824 32.5533 97.1561 32.7646 97.4593 33.0849C97.7639 33.402 98.0023 33.802 98.1747 34.2857C98.4414 35.0336 98.4667 35.7054 98.2512 36.3013C98.0385 36.8984 97.6091 37.3309 96.9627 37.5987L96.5613 36.4729C96.9066 36.3231 97.1408 36.08 97.2627 35.744C97.3831 35.4112 97.3656 35.0265 97.2101 34.59C97.066 34.1864 96.8655 33.8964 96.6085 33.7195C96.3511 33.5425 96.0833 33.5039 95.8048 33.6029C95.5806 33.683 95.4223 33.8206 95.3297 34.0158C95.2396 34.2103 95.1895 34.4316 95.1795 34.6797C95.1706 34.9303 95.1813 35.2667 95.2124 35.6893C95.2535 36.2223 95.265 36.6638 95.246 37.0138C95.2271 37.3638 95.1291 37.6927 94.9518 38.0005C94.7745 38.3083 94.482 38.5404 94.0748 38.6962C93.7045 38.8285 93.3352 38.8442 92.967 38.7445C92.5966 38.6451 92.2605 38.4378 91.9592 38.1224C91.6585 37.8093 91.4218 37.4099 91.2484 36.9237Z" fill="white"/>
<path d="M1.58936 51.0993C1.58936 50.4862 2.08628 49.9893 2.69975 49.9893C3.31286 49.9893 3.80979 50.4862 3.80979 51.0993C3.80979 51.7124 3.31286 52.2093 2.69975 52.2097C2.08664 52.2097 1.58971 51.7128 1.58936 51.0993Z" fill="white"/>
<path d="M96.1899 51.0993C96.1899 50.4862 96.6869 49.9893 97.3 49.9893C97.9131 49.9893 98.41 50.4862 98.4104 51.0993C98.4104 51.7124 97.9135 52.2093 97.3 52.2097C96.6869 52.2097 96.1899 51.7128 96.1899 51.0993Z" fill="white"/>
<path d="M6.54528 64.1645C6.64574 64.5059 6.66791 64.8215 6.61249 65.1122C6.55851 65.3996 6.43374 65.6452 6.23748 65.849C6.03835 66.051 5.77773 66.1997 5.45598 66.2941C5.13387 66.3888 4.83572 66.4046 4.56116 66.3416C4.28588 66.2762 4.04922 66.1371 3.8508 65.9237C3.65168 65.7081 3.50188 65.4297 3.40178 65.0882L3.11328 64.108L6.25714 63.1838L6.54528 64.1645ZM3.74034 64.9889C3.85903 65.3925 4.05672 65.6699 4.33379 65.8211C4.613 65.9713 4.94619 65.9899 5.333 65.8758C5.72232 65.7614 5.99616 65.5648 6.15418 65.2859C6.30933 65.0053 6.32792 64.6642 6.20995 64.2628L6.04264 63.6933L3.57303 64.419L3.74034 64.9889Z" fill="white"/>
<path d="M4.59429 68.7569C4.50921 68.532 4.48347 68.3086 4.51743 68.0866C4.54889 67.8656 4.63969 67.6665 4.78984 67.4895C4.94071 67.3147 5.14019 67.1803 5.3883 67.0863C5.63426 66.9933 5.872 66.9637 6.10187 66.9973C6.32995 67.0341 6.52944 67.126 6.70033 67.2729C6.87336 67.4191 7.00313 67.6057 7.08929 67.8331C7.17616 68.0626 7.20261 68.2886 7.16865 68.5102C7.13791 68.7333 7.04925 68.9342 6.90231 69.113C6.75574 69.2917 6.55804 69.4279 6.30993 69.5219C6.06147 69.616 5.82159 69.6438 5.59029 69.6052C5.35898 69.567 5.15735 69.473 4.9854 69.3239C4.81129 69.1755 4.68081 68.9864 4.59429 68.7569ZM4.94571 68.6239C4.9997 68.7669 5.08478 68.8888 5.20061 68.9893C5.31394 69.0908 5.45336 69.1548 5.61853 69.1809C5.78119 69.2077 5.95994 69.1845 6.15442 69.1108C6.3464 69.0382 6.49655 68.9385 6.6038 68.8119C6.70819 68.684 6.77111 68.5463 6.79292 68.399C6.81151 68.25 6.79399 68.1041 6.74001 67.9611C6.68424 67.8134 6.60022 67.6912 6.48868 67.5943C6.37536 67.5006 6.23808 67.4413 6.07577 67.4166C5.91239 67.3955 5.73472 67.4213 5.54274 67.4938C5.34576 67.5682 5.19453 67.6672 5.08836 67.7906C4.97896 67.9121 4.91461 68.0465 4.89495 68.1931C4.87457 68.3375 4.89137 68.4809 4.94571 68.6239Z" fill="white"/>
<path d="M8.40622 70.9298C8.5367 71.2144 8.55565 71.4854 8.46413 71.7424C8.37118 71.997 8.16312 72.1983 7.83958 72.3463L6.45927 72.978L6.28409 72.5954L7.60971 71.9888C7.84208 71.8826 7.99366 71.7414 8.0648 71.5655C8.13452 71.3932 8.12308 71.2055 8.03048 71.0028C7.93682 70.7979 7.79847 70.6642 7.61543 70.6017C7.43024 70.5405 7.2161 70.5656 6.97228 70.6771L5.67742 71.2695L5.49902 70.8802L7.83958 69.8091L8.01761 70.1984L7.68621 70.3503C7.83994 70.3736 7.98043 70.4361 8.10699 70.538C8.23354 70.6399 8.33329 70.7704 8.40622 70.9298Z" fill="white"/>
<path d="M8.04958 73.2146C8.28017 73.0877 8.50825 73.0223 8.73491 73.018C8.96013 73.0169 9.1657 73.0709 9.3516 73.1803C9.53857 73.2918 9.688 73.4484 9.79919 73.6504C9.89571 73.8259 9.94505 74.0118 9.94719 74.2077C9.94934 74.404 9.90644 74.5777 9.81813 74.7293L11.0097 74.0733L11.2181 74.4519L8.17292 76.1279L7.96449 75.7493L8.3892 75.5155C8.21439 75.5144 8.04314 75.4658 7.87548 75.3692C7.71031 75.2716 7.57375 75.1251 7.4665 74.9295C7.35674 74.7297 7.30562 74.5205 7.31384 74.3014C7.32314 74.0847 7.39071 73.8802 7.51655 73.6879C7.64346 73.4981 7.82114 73.3401 8.04958 73.2146ZM9.09706 75.1258C9.26615 75.0328 9.39557 74.9174 9.4853 74.7794C9.57182 74.6403 9.61686 74.4937 9.62115 74.34C9.62508 74.1863 9.58862 74.039 9.51104 73.8988C9.43489 73.7605 9.33193 73.6514 9.20216 73.571C9.07346 73.4931 8.92617 73.4541 8.76029 73.4541C8.59763 73.4548 8.43103 73.5024 8.25979 73.5964C8.0864 73.6918 7.95484 73.8084 7.86475 73.9467C7.77609 74.0869 7.72926 74.2331 7.7239 74.3847C7.72211 74.5373 7.75929 74.6825 7.83544 74.8208C7.91266 74.9613 8.01633 75.0714 8.1461 75.1515C8.27802 75.2305 8.4271 75.2699 8.59298 75.2702C8.75779 75.2681 8.92581 75.2202 9.09706 75.1258Z" fill="white"/>
<path d="M11.2276 78.3236C11.1583 78.3686 11.0832 78.4115 11.002 78.4519L9.88021 76.7252C9.67608 76.8757 9.55739 77.0559 9.52378 77.2661C9.49125 77.4784 9.53665 77.679 9.65928 77.8681C9.75902 78.0215 9.87843 78.1273 10.0182 78.1859C10.1587 78.241 10.3024 78.2506 10.4494 78.2152L10.701 78.6028C10.4569 78.6778 10.2138 78.6714 9.97173 78.5838C9.72827 78.4941 9.52307 78.3211 9.35683 78.0647C9.22313 77.8588 9.14984 77.645 9.13733 77.423C9.12267 77.2024 9.17093 76.9919 9.28211 76.7913C9.39222 76.5882 9.55846 76.4145 9.78154 76.2697C10.0043 76.1249 10.2284 76.0423 10.4536 76.0213C10.6803 76.0023 10.8916 76.0445 11.0868 76.1474C11.2845 76.249 11.4514 76.4052 11.5876 76.6151C11.7199 76.8188 11.7921 77.0287 11.8043 77.2453C11.8164 77.4616 11.7725 77.6632 11.6731 77.8502C11.5737 78.0372 11.425 78.1952 11.2276 78.3236ZM11.0618 77.9024C11.1983 77.8138 11.2963 77.7069 11.3553 77.5817C11.4125 77.458 11.4336 77.3276 11.4193 77.1906C11.4028 77.0548 11.3535 76.9239 11.272 76.7981C11.1533 76.6154 10.9953 76.4985 10.7976 76.4474C10.5988 76.3945 10.3914 76.4245 10.1752 76.5382L11.0618 77.9024Z" fill="white"/>
<path d="M12.5338 80.2495C12.7408 80.0829 12.9553 79.9778 13.1773 79.9342C13.3989 79.8941 13.6117 79.9124 13.8154 79.9899C14.0206 80.0693 14.2001 80.2044 14.3542 80.3953C14.5522 80.6413 14.6548 80.893 14.6627 81.1504C14.6724 81.4064 14.5916 81.6452 14.4196 81.8672L14.1297 81.5072C14.2258 81.3749 14.2691 81.2308 14.2594 81.0746C14.2512 80.9205 14.1879 80.7704 14.0703 80.6241C13.9162 80.4329 13.7268 80.3314 13.5019 80.3192C13.277 80.3074 13.0454 80.3971 12.8073 80.5891C12.5653 80.7839 12.4262 80.9924 12.3894 81.2147C12.3508 81.4385 12.4087 81.6462 12.5628 81.8375C12.6807 81.9837 12.813 82.0785 12.9596 82.121C13.1065 82.1635 13.2574 82.1514 13.4125 82.0842L13.7025 82.4442C13.4551 82.5564 13.2048 82.5811 12.9514 82.5182C12.6979 82.4553 12.4748 82.3037 12.2818 82.0638C12.1277 81.8725 12.034 81.668 12.0004 81.4507C11.9664 81.2369 11.994 81.0249 12.0826 80.8154C12.1727 80.6077 12.3232 80.4193 12.5338 80.2495Z" fill="white"/>
<path d="M14.566 82.7055C14.759 82.5268 14.9646 82.4081 15.1834 82.3491C15.4018 82.2937 15.6145 82.2965 15.8211 82.3577C16.0296 82.4206 16.2115 82.5357 16.3663 82.703C16.5193 82.8685 16.6166 83.0451 16.657 83.2325C16.6977 83.4202 16.6917 83.5946 16.6398 83.7559L16.9844 83.4366L17.278 83.7537L15.3893 85.5026L15.0958 85.1855L15.4486 84.8587C15.2806 84.8984 15.1026 84.8906 14.9149 84.8355C14.7293 84.7787 14.5613 84.6696 14.4119 84.5077C14.2553 84.3386 14.1563 84.1487 14.1144 83.9378C14.0712 83.7251 14.0873 83.5106 14.1634 83.2936C14.2406 83.0784 14.3751 82.8825 14.566 82.7055ZM16.0442 84.3071C16.1858 84.1759 16.2834 84.0326 16.3374 83.877C16.3878 83.7212 16.3964 83.5682 16.3628 83.418C16.3295 83.2679 16.2584 83.1338 16.1497 83.0162C16.0424 82.9004 15.9162 82.8192 15.7707 82.7731C15.627 82.7284 15.4747 82.7263 15.3135 82.7663C15.1558 82.8063 15.0053 82.8928 14.8623 83.0255C14.7172 83.1599 14.6174 83.305 14.5638 83.4606C14.5116 83.6182 14.5013 83.7709 14.5327 83.9192C14.5677 84.0676 14.6389 84.1999 14.7461 84.3157C14.8552 84.4333 14.9821 84.5152 15.1276 84.5617C15.2749 84.6063 15.429 84.6088 15.5902 84.5688C15.7496 84.527 15.9009 84.4398 16.0442 84.3071Z" fill="white"/>
<path d="M16.9871 85.2487C17.1662 85.056 17.3624 84.9223 17.5762 84.8473C17.79 84.7758 18.002 84.7629 18.2129 84.8086C18.4256 84.8558 18.6162 84.9581 18.7849 85.115C18.9315 85.2516 19.0366 85.4125 19.1002 85.598C19.1635 85.7835 19.1771 85.9623 19.1406 86.1339L20.0673 85.1379L20.3837 85.4325L18.016 87.9768L17.6996 87.6826L18.0299 87.3276C17.8633 87.3816 17.6856 87.3887 17.4961 87.3494C17.3085 87.3083 17.1333 87.2118 16.9699 87.0602C16.803 86.905 16.6893 86.722 16.6285 86.5114C16.5695 86.3026 16.5699 86.0871 16.6292 85.8651C16.6903 85.6448 16.8097 85.4393 16.9871 85.2487ZM18.5801 86.7363C18.7116 86.5951 18.7982 86.4449 18.8403 86.2855C18.879 86.1264 18.8761 85.973 18.8318 85.8257C18.7874 85.6784 18.7066 85.5501 18.5894 85.4411C18.4739 85.3335 18.342 85.262 18.1936 85.2266C18.0471 85.193 17.8951 85.2019 17.7371 85.2537C17.583 85.3052 17.4393 85.4028 17.3063 85.5458C17.1715 85.6906 17.0829 85.8429 17.041 86.002C17.0006 86.1629 17.0017 86.3162 17.0443 86.4617C17.0904 86.6072 17.1712 86.7338 17.2863 86.8414C17.4036 86.9504 17.5365 87.023 17.6853 87.0584C17.8354 87.092 17.9891 87.0831 18.1468 87.0309C18.3027 86.9772 18.4471 86.8793 18.5801 86.7363Z" fill="white"/>
<path d="M19.5909 87.6051C19.7554 87.3999 19.9413 87.2519 20.1486 87.1611C20.3563 87.0739 20.5672 87.0453 20.7807 87.0749C20.9962 87.1064 21.1929 87.1933 21.3709 87.3359C21.5468 87.4768 21.6691 87.6369 21.737 87.8164C21.8049 87.9958 21.8249 88.1692 21.7974 88.3365L22.0909 87.9697L22.4284 88.2397L20.8196 90.2492L20.4822 89.9793L20.7828 89.6039C20.6223 89.6679 20.4453 89.6868 20.2519 89.66C20.06 89.6314 19.8776 89.5481 19.7053 89.4105C19.5255 89.2664 19.3993 89.0934 19.3271 88.891C19.2527 88.6873 19.237 88.4724 19.2799 88.2465C19.3246 88.0223 19.4283 87.8085 19.5909 87.6051ZM21.2901 88.97C21.4106 88.8195 21.486 88.6633 21.5161 88.5014C21.5429 88.3398 21.5286 88.1871 21.4735 88.0434C21.4185 87.8997 21.3284 87.7778 21.2029 87.678C21.0795 87.5794 20.9426 87.5179 20.7925 87.4936C20.6438 87.4707 20.4929 87.4911 20.3392 87.5543C20.1894 87.6173 20.0532 87.7249 19.9313 87.8775C19.8076 88.032 19.7307 88.1903 19.7007 88.3523C19.6724 88.5157 19.6849 88.6687 19.7378 88.8106C19.7947 88.9522 19.8844 89.0723 20.0078 89.171C20.1329 89.2711 20.2709 89.3333 20.4214 89.3579C20.5737 89.3804 20.7263 89.3597 20.8797 89.2964C21.0313 89.2314 21.1679 89.1227 21.2901 88.97Z" fill="white"/>
<path d="M24.5954 90.306C24.7466 90.2269 24.9193 90.1915 25.1134 90.1991C25.309 90.2048 25.4995 90.2666 25.6854 90.3853C25.8799 90.509 26.0258 90.6674 26.1227 90.8597C26.222 91.0535 26.2628 91.2623 26.2453 91.4857C26.2285 91.7127 26.1495 91.9369 26.0083 92.1589C25.8685 92.3787 25.6983 92.5453 25.4985 92.6583C25.3008 92.7731 25.0923 92.8274 24.8732 92.8217C24.6562 92.817 24.4506 92.753 24.2562 92.6293C24.0724 92.5124 23.9358 92.3673 23.8468 92.1946C23.7592 92.0198 23.7174 91.8478 23.7213 91.6784L22.8111 93.1077L22.4497 92.8778L24.4885 89.6764L24.8496 89.9066L24.5954 90.306ZM25.6372 91.9226C25.7423 91.7578 25.8002 91.5944 25.8116 91.4324C25.8242 91.268 25.7945 91.1185 25.723 90.9838C25.6493 90.8476 25.5457 90.7375 25.4127 90.6527C25.2797 90.568 25.136 90.5226 24.9822 90.5165C24.8285 90.5108 24.6787 90.5476 24.5332 90.6273C24.3877 90.7067 24.2637 90.8268 24.1614 90.9873C24.0563 91.1522 23.9988 91.3173 23.9884 91.4828C23.978 91.6484 24.008 91.7996 24.0781 91.9365C24.1496 92.0713 24.2522 92.181 24.3852 92.2658C24.5182 92.3505 24.6623 92.3977 24.8167 92.407C24.9704 92.4127 25.1192 92.3752 25.2625 92.2944C25.4062 92.2136 25.531 92.0895 25.6372 91.9226Z" fill="white"/>
<path d="M26.657 92.5146C26.7814 92.2829 26.9377 92.1038 27.125 91.9769C27.3134 91.8535 27.5157 91.787 27.7309 91.7781C27.9487 91.7699 28.1578 91.8199 28.3587 91.9275C28.5575 92.0341 28.7062 92.1699 28.8056 92.334C28.905 92.4985 28.9561 92.6651 28.959 92.8345L29.1813 92.4209L29.5621 92.6254L28.3437 94.8926L27.963 94.6882L28.1907 94.2645C28.0445 94.3567 27.8739 94.4072 27.6788 94.4157C27.4846 94.4225 27.2905 94.3736 27.096 94.2692C26.893 94.1601 26.7375 94.0125 26.6298 93.8269C26.5197 93.64 26.4654 93.4315 26.4668 93.2017C26.47 92.9732 26.5337 92.7441 26.657 92.5146ZM28.575 93.5495C28.6662 93.3797 28.7123 93.2124 28.7123 93.0476C28.7094 92.8838 28.6676 92.7362 28.5875 92.605C28.5074 92.4738 28.3966 92.3701 28.2554 92.2943C28.1163 92.2196 27.9705 92.1839 27.8182 92.1874C27.668 92.1921 27.5229 92.2393 27.3835 92.3294C27.2476 92.4184 27.1332 92.5489 27.041 92.7208C26.9473 92.8953 26.9001 93.0647 26.8998 93.2296C26.9015 93.3954 26.9416 93.5434 27.0195 93.6736C27.101 93.8026 27.2111 93.9045 27.3502 93.9792C27.4914 94.055 27.6384 94.0915 27.7906 94.0879C27.9444 94.0822 28.091 94.0346 28.2304 93.9446C28.3677 93.8534 28.4824 93.7215 28.575 93.5495Z" fill="white"/>
<path d="M31.387 93.862L30.776 93.581L30.1429 94.9566C30.0907 95.0703 30.0771 95.1622 30.1032 95.2319C30.1315 95.3027 30.2044 95.3653 30.3227 95.42L30.6095 95.5519L30.4586 95.8793L30.1072 95.7178C29.8909 95.6184 29.7525 95.494 29.6914 95.3445C29.6281 95.194 29.6492 95.0053 29.754 94.7775L30.3871 93.4019L30.0864 93.2635L30.2341 92.9425L30.5347 93.0808L30.8064 92.4902L31.1954 92.6693L30.9237 93.2599L31.5347 93.5413L31.387 93.862Z" fill="white"/>
<path d="M31.6412 94.9695C31.7377 94.7246 31.8714 94.5284 32.0427 94.3804C32.2153 94.2356 32.4084 94.1462 32.6215 94.1119C32.8367 94.0783 33.0505 94.1033 33.2621 94.1866C33.472 94.2692 33.6357 94.3864 33.754 94.538C33.872 94.6896 33.9424 94.8494 33.9649 95.0171L34.1373 94.5802L34.5391 94.7386L33.5953 97.1331L33.1931 96.9747L33.3697 96.5271C33.2353 96.6358 33.0716 96.7059 32.8789 96.7377C32.6869 96.767 32.4885 96.7413 32.2833 96.6605C32.0688 96.5761 31.8972 96.4478 31.7685 96.2758C31.6373 96.1028 31.559 95.9022 31.5329 95.6741C31.5093 95.4468 31.5454 95.2119 31.6412 94.9695ZM33.6672 95.7721C33.7379 95.5926 33.7637 95.421 33.7451 95.2576C33.7229 95.0953 33.6643 94.9538 33.5692 94.8326C33.4741 94.7117 33.3522 94.6217 33.2028 94.563C33.0558 94.5051 32.9071 94.4869 32.7559 94.508C32.6072 94.5301 32.4688 94.5941 32.3408 94.6999C32.2161 94.8043 32.1181 94.9473 32.0466 95.1293C31.974 95.3134 31.9472 95.4872 31.9662 95.6509C31.9876 95.8154 32.0445 95.9576 32.137 96.0778C32.2329 96.1964 32.3544 96.2847 32.5013 96.3427C32.6504 96.4013 32.8006 96.4202 32.9518 96.3988C33.1037 96.3752 33.2439 96.3105 33.3715 96.205C33.497 96.0985 33.5956 95.9541 33.6672 95.7721Z" fill="white"/>
<path d="M38.8857 97.2729C38.8639 97.3526 38.836 97.4345 38.8024 97.5189L36.8168 96.9726C36.7643 97.2207 36.795 97.4341 36.9094 97.6136C37.026 97.7938 37.1933 97.9139 37.4106 97.9736C37.5869 98.0222 37.7467 98.0219 37.89 97.9732C38.0316 97.9214 38.1457 97.8331 38.2318 97.7087L38.6773 97.8313C38.5446 98.0494 38.3584 98.206 38.1192 98.3014C37.8775 98.3962 37.6094 98.403 37.3148 98.3214C37.0782 98.2564 36.8815 98.1452 36.7246 97.9875C36.5673 97.8324 36.4636 97.6429 36.4136 97.4188C36.361 97.1939 36.37 96.9533 36.4404 96.6973C36.5108 96.4414 36.6234 96.2308 36.7782 96.0653C36.9352 95.9005 37.1211 95.7918 37.3356 95.7396C37.5508 95.6845 37.7792 95.6903 38.0205 95.7564C38.2547 95.8207 38.4481 95.9298 38.6008 96.0835C38.7534 96.2372 38.8546 96.417 38.9046 96.6233C38.9543 96.8292 38.9482 97.0459 38.8857 97.2729ZM38.4821 97.0681C38.5253 96.9111 38.5275 96.7663 38.4885 96.6333C38.4492 96.5029 38.3784 96.3913 38.2769 96.2984C38.1746 96.2079 38.0509 96.1425 37.9058 96.1028C37.6956 96.0449 37.5 96.0624 37.3184 96.1557C37.1346 96.248 36.9995 96.4085 36.9134 96.6366L38.4821 97.0681Z" fill="white"/>
<path d="M41.2343 96.5018C41.5411 96.5647 41.7713 96.7087 41.9243 96.9343C42.0752 97.1595 42.1149 97.4463 42.0437 97.7948L41.7391 99.2824L41.3269 99.198L41.6194 97.7694C41.6705 97.5192 41.6462 97.3133 41.5461 97.1524C41.4481 96.9944 41.2897 96.8929 41.0713 96.8482C40.8504 96.8031 40.6609 96.8357 40.5029 96.9465C40.3442 97.0598 40.238 97.2479 40.184 97.5103L39.8987 98.9056L39.479 98.8198L39.9949 96.298L40.4146 96.3838L40.3417 96.7409C40.451 96.6305 40.5844 96.5539 40.7413 96.5121C40.8983 96.4699 41.0627 96.4667 41.2343 96.5018Z" fill="white"/>
<path d="M42.8683 98.1417C42.9026 97.8782 42.9848 97.6541 43.1149 97.4689C43.2472 97.2865 43.4138 97.1528 43.6144 97.0681C43.8174 96.9834 44.0405 96.9569 44.2843 96.9887C44.5971 97.0295 44.8456 97.1403 45.029 97.3209C45.2127 97.4989 45.3196 97.7277 45.349 98.0065L44.8906 97.9468C44.8688 97.7849 44.8005 97.6508 44.6854 97.545C44.5728 97.4395 44.4234 97.3745 44.2371 97.3502C43.9937 97.3184 43.7867 97.3759 43.6158 97.5228C43.4449 97.6698 43.3398 97.895 43.3005 98.1978C43.2604 98.506 43.304 98.7526 43.431 98.9389C43.5579 99.1273 43.7431 99.2374 43.9869 99.2689C44.1731 99.2932 44.334 99.27 44.4695 99.1992C44.605 99.1284 44.7058 99.0154 44.7716 98.8599L45.2299 98.9196C45.1287 99.1716 44.965 99.3625 44.7383 99.492C44.5117 99.6217 44.2457 99.6664 43.94 99.6267C43.6966 99.5949 43.4874 99.512 43.313 99.3783C43.1407 99.2471 43.0141 99.0751 42.9333 98.8624C42.855 98.65 42.8332 98.4098 42.8683 98.1417Z" fill="white"/>
<path d="M48.1259 97.3651L48.5535 97.3926L48.3894 99.9613L47.9618 99.9341L47.9861 99.5552C47.8978 99.6799 47.7788 99.7754 47.629 99.8412C47.4767 99.9041 47.3133 99.9302 47.1381 99.9191C46.9383 99.9062 46.762 99.8537 46.6101 99.7611C46.4553 99.6685 46.337 99.5351 46.2551 99.3618C46.1732 99.1909 46.1396 98.9867 46.155 98.7494L46.2508 97.2454L46.6748 97.2725L46.5822 98.7201C46.5661 98.9724 46.6172 99.1716 46.7363 99.3174C46.8553 99.4604 47.0259 99.5391 47.2482 99.5534C47.4756 99.568 47.6601 99.5094 47.8016 99.3778C47.9407 99.2463 48.0186 99.0454 48.0358 98.7751L48.1259 97.3651Z" fill="white"/>
<path d="M51.8824 98.561C51.8831 98.6436 51.8789 98.7301 51.8696 98.8202L49.8104 98.8388C49.8275 99.0915 49.9158 99.2889 50.0753 99.4301C50.2369 99.5713 50.4303 99.641 50.6559 99.6392C50.8389 99.6374 50.9923 99.5935 51.1167 99.5073C51.2386 99.4186 51.324 99.3025 51.373 99.1591L51.8352 99.1552C51.7673 99.4011 51.6315 99.6028 51.4273 99.7601C51.2207 99.9174 50.9647 99.9971 50.6591 99.9999C50.4135 100.002 50.194 99.9492 49.9998 99.8405C49.8061 99.7347 49.6541 99.5806 49.5447 99.3786C49.4328 99.1766 49.3756 98.9428 49.3731 98.6775C49.3706 98.4119 49.4214 98.1785 49.5247 97.9772C49.6305 97.7759 49.7796 97.6204 49.9716 97.511C50.1636 97.3991 50.3845 97.3419 50.6351 97.3394C50.8782 97.3373 51.0941 97.3891 51.2829 97.4953C51.4717 97.6015 51.6182 97.7466 51.7226 97.9311C51.827 98.1156 51.8803 98.3254 51.8824 98.561ZM51.4381 98.4748C51.4366 98.3122 51.3991 98.172 51.3254 98.0548C51.2518 97.9404 51.1531 97.8521 51.0298 97.7906C50.9065 97.7316 50.7695 97.7026 50.6194 97.7041C50.4013 97.7059 50.2179 97.7766 50.0692 97.9157C49.9176 98.0548 49.8318 98.246 49.8111 98.4895L51.4381 98.4748Z" fill="white"/>
<path d="M53.9298 97.1764C54.2419 97.1528 54.5029 97.2286 54.712 97.4035C54.9186 97.5786 55.0355 97.8439 55.0624 98.1985L55.1768 99.7122L54.7574 99.744L54.6473 98.2904C54.628 98.0355 54.5483 97.8446 54.4081 97.7166C54.2705 97.5915 54.0907 97.5372 53.868 97.554C53.6431 97.5711 53.4697 97.6544 53.3481 97.8046C53.2266 97.9569 53.1758 98.1667 53.1959 98.4341L53.3035 99.8541L52.8763 99.8863L52.6821 97.3198L53.1093 97.2873L53.1369 97.6508C53.2119 97.5146 53.3192 97.4045 53.4586 97.3212C53.598 97.2379 53.755 97.1897 53.9298 97.1764Z" fill="white"/>
<path d="M57.1647 97.2043L56.4983 97.2959L56.705 98.7963C56.7221 98.9203 56.7604 99.0047 56.8194 99.0498C56.8812 99.0944 56.9767 99.1077 57.1057 99.0898L57.4185 99.0469L57.4675 99.404L57.0843 99.4569C56.8487 99.4895 56.6649 99.4591 56.533 99.3661C56.3989 99.2732 56.3146 99.103 56.2806 98.8545L56.074 97.3545L55.7461 97.3995L55.6982 97.0495L56.0257 97.0045L55.9371 96.3606L56.3614 96.302L56.4501 96.9462L57.1164 96.8543L57.1647 97.2043Z" fill="white"/>
<path d="M58.3988 97.0527C58.4467 96.894 58.5322 96.7628 58.6562 96.6591C58.7771 96.5533 58.9361 96.4825 59.1335 96.4468L59.2121 96.8833L59.1013 96.9033C58.6305 96.988 58.441 97.2858 58.5329 97.796L58.7817 99.1756L58.3602 99.2514L57.9033 96.7185L58.3248 96.6423L58.3988 97.0527Z" fill="white"/>
<path d="M60.025 97.6032C59.9632 97.3476 59.9599 97.1099 60.0154 96.8908C60.0736 96.673 60.1798 96.4889 60.3342 96.338C60.4912 96.1868 60.6803 96.0846 60.902 96.031C61.1211 95.9781 61.3224 95.9798 61.5061 96.036C61.6899 96.0921 61.839 96.1822 61.9541 96.3066L61.844 95.8501L62.264 95.7485L62.8679 98.2507L62.4478 98.3522L62.3352 97.8846C62.2876 98.0508 62.194 98.2021 62.0542 98.339C61.914 98.4734 61.7367 98.5664 61.5226 98.6182C61.2984 98.6722 61.0843 98.6661 60.8801 98.5992C60.6735 98.5331 60.494 98.4141 60.3417 98.2421C60.192 98.0694 60.0865 97.8567 60.025 97.6032ZM62.1446 97.0956C62.0992 96.9083 62.022 96.7528 61.9123 96.6298C61.8007 96.5097 61.6713 96.4278 61.5244 96.3835C61.3771 96.3391 61.2255 96.3359 61.0696 96.3731C60.9163 96.4103 60.7836 96.4807 60.6721 96.5851C60.563 96.6888 60.4865 96.8207 60.4429 96.9805C60.4011 97.1374 60.4029 97.3112 60.4486 97.501C60.4951 97.6933 60.5731 97.851 60.6828 97.9743C60.7947 98.0966 60.9234 98.1806 61.0682 98.2253C61.2148 98.2671 61.3649 98.2696 61.5183 98.2324C61.6742 98.1949 61.8079 98.1238 61.9194 98.0197C62.0302 97.9132 62.1074 97.7799 62.1514 97.6197C62.1929 97.4603 62.1907 97.2854 62.1446 97.0956Z" fill="white"/>
<path d="M66.3992 97.1625C66.2126 97.2283 66.0345 97.2551 65.8658 97.2426C65.6945 97.2311 65.5462 97.1836 65.4214 97.1003C65.2963 97.0166 65.2033 96.9033 65.1422 96.7603L65.5569 96.6141C65.6112 96.7303 65.7024 96.8086 65.8307 96.8486C65.9623 96.8901 66.1107 96.8815 66.2758 96.8232C66.4296 96.7693 66.5379 96.6924 66.6015 96.5934C66.6673 96.4933 66.6823 96.3924 66.6462 96.2906C66.6087 96.1844 66.5336 96.1218 66.421 96.1032C66.308 96.0846 66.1439 96.0854 65.9276 96.1054C65.7314 96.1215 65.5666 96.1247 65.4336 96.1161C65.3027 96.1064 65.1805 96.0685 65.0668 96.0021C64.9524 95.9334 64.8676 95.8212 64.8126 95.6653C64.7686 95.5402 64.765 95.4136 64.8029 95.2863C64.8398 95.1566 64.9155 95.0368 65.031 94.9271C65.144 94.8184 65.2881 94.7329 65.4629 94.6714C65.7324 94.5767 65.9737 94.5685 66.1875 94.6475C66.4013 94.7265 66.5554 94.8817 66.6505 95.114L66.2462 95.2563C66.1918 95.1319 66.1049 95.0472 65.9855 95.0014C65.8643 94.9592 65.726 94.9653 65.5698 95.0204C65.4257 95.0711 65.3217 95.1423 65.2584 95.2334C65.1926 95.3257 65.1776 95.4226 65.2133 95.5241C65.2416 95.6045 65.2906 95.6603 65.3599 95.6918C65.4303 95.7254 65.5097 95.7439 65.5984 95.7472C65.6881 95.7529 65.8093 95.75 65.9619 95.7389C66.1536 95.7246 66.3116 95.7207 66.436 95.7271C66.5615 95.7361 66.6798 95.7715 66.7921 95.833C66.9025 95.8977 66.9851 96.0042 67.0398 96.1522C67.0863 96.2845 67.0916 96.4168 67.0559 96.549C67.0176 96.682 66.9433 96.8025 66.8325 96.9105C66.7184 97.017 66.5743 97.101 66.3992 97.1625Z" fill="white"/>
<path d="M68.9189 93.3339L69.3132 93.167L70.3174 95.5369L69.9231 95.7038L69.7751 95.3545C69.7522 95.5058 69.6883 95.6445 69.5839 95.7703C69.4763 95.8947 69.3415 95.9912 69.1802 96.0595C68.9958 96.1378 68.8145 96.1696 68.6368 96.155C68.457 96.1414 68.2915 96.0756 68.141 95.9573C67.9912 95.8411 67.8696 95.6738 67.7771 95.4543L67.189 94.0672L67.5801 93.9013L68.146 95.2369C68.2447 95.47 68.3798 95.6248 68.551 95.7017C68.7216 95.7764 68.9093 95.7703 69.1145 95.6834C69.3243 95.5944 69.463 95.4596 69.5306 95.2784C69.5957 95.0986 69.5756 94.8837 69.4702 94.6349L68.9189 93.3339Z" fill="white"/>
<path d="M72.0418 93.2303C71.9131 92.9979 71.8459 92.7687 71.8409 92.5424C71.8391 92.3172 71.8934 92.1106 72.0042 91.9233C72.1172 91.7345 72.2809 91.5804 72.4958 91.4614C72.7718 91.3084 73.0374 91.2497 73.2923 91.2858C73.5461 91.3198 73.7678 91.4403 73.9573 91.6476L73.5529 91.8718C73.4392 91.7545 73.3045 91.6873 73.149 91.6705C72.9956 91.6523 72.8369 91.6891 72.6728 91.7803C72.4583 91.8993 72.3256 92.0688 72.2756 92.2883C72.2255 92.5081 72.2749 92.7516 72.4232 93.0186C72.5741 93.2903 72.7557 93.463 72.9684 93.537C73.1826 93.6132 73.3967 93.5914 73.6116 93.4723C73.776 93.3811 73.8915 93.2668 73.9583 93.1295C74.0252 92.9922 74.0391 92.8413 73.9998 92.6769L74.4038 92.4527C74.4724 92.7155 74.4538 92.9664 74.3487 93.2053C74.2436 93.4441 74.0563 93.6382 73.7867 93.788C73.5722 93.907 73.3549 93.9646 73.1347 93.9603C72.918 93.9571 72.7142 93.8942 72.5226 93.7715C72.3335 93.6475 72.173 93.4669 72.0418 93.2303Z" fill="white"/>
<path d="M74.8086 91.6466C74.6656 91.4261 74.5834 91.203 74.5626 90.9774C74.5451 90.7529 74.5845 90.5438 74.6799 90.3504C74.7775 90.1555 74.9219 89.9961 75.1132 89.8724C75.3023 89.7498 75.4929 89.6843 75.6848 89.6761C75.8768 89.6682 76.0477 89.7036 76.1971 89.7826L75.9415 89.3887L76.304 89.1534L77.7051 91.3127L77.3426 91.548L77.0809 91.1444C77.0912 91.3167 77.0534 91.4908 76.9668 91.6663C76.8792 91.8397 76.743 91.9863 76.5579 92.1064C76.3644 92.2319 76.1603 92.2969 75.9458 92.302C75.7288 92.3084 75.52 92.2555 75.3191 92.1439C75.1203 92.031 74.9502 91.8651 74.8086 91.6466ZM76.639 90.4637C76.5339 90.3017 76.4095 90.1813 76.2651 90.1015C76.1199 90.0254 75.9708 89.9907 75.8171 89.9979C75.6634 90.005 75.5193 90.0522 75.3849 90.1394C75.2526 90.2252 75.1511 90.336 75.0807 90.4712C75.0124 90.6052 74.9841 90.755 74.9959 90.9206C75.0085 91.0825 75.0678 91.2455 75.1743 91.4093C75.2819 91.5751 75.4081 91.6981 75.5522 91.7779C75.6984 91.8561 75.8475 91.8922 75.9991 91.8865C76.1514 91.8772 76.2937 91.8297 76.4259 91.7439C76.5604 91.6567 76.663 91.5455 76.7334 91.41C76.8024 91.2727 76.831 91.1211 76.8195 90.9556C76.8056 90.7915 76.7455 90.6274 76.639 90.4637Z" fill="white"/>
<path d="M79.4651 86.6387C79.6228 86.515 79.789 86.4367 79.9642 86.4041C80.1372 86.373 80.3124 86.3952 80.489 86.4699C80.662 86.5443 80.8222 86.6748 80.9691 86.8621L81.9068 88.0558L81.5729 88.3182L80.6724 87.1717C80.5144 86.9708 80.3438 86.8549 80.1601 86.8238C79.976 86.7963 79.7994 86.8492 79.6299 86.9822C79.4547 87.1199 79.36 87.2854 79.3457 87.4781C79.3296 87.6726 79.4043 87.8749 79.5698 88.0858L80.4471 89.2027L80.1132 89.4651L79.2127 88.3186C79.0547 88.1176 78.8842 88.0018 78.7004 87.9707C78.5163 87.9432 78.3397 87.9961 78.1702 88.1291C77.9951 88.2667 77.9003 88.4322 77.886 88.6249C77.8699 88.8194 77.9446 89.0218 78.1102 89.2327L78.9875 90.3495L78.6507 90.6141L77.0605 88.5903L77.3973 88.3253L77.6272 88.6181C77.6107 88.4591 77.6361 88.3071 77.7033 88.1616C77.7709 88.0161 77.8714 87.891 78.0054 87.7855C78.1767 87.6507 78.3576 87.571 78.5481 87.5456C78.7383 87.5203 78.9242 87.556 79.1051 87.6525C79.0493 87.4638 79.0554 87.2789 79.1237 87.098C79.1916 86.9172 79.3056 86.7638 79.4651 86.6387Z" fill="white"/>
<path d="M80.8873 84.9285C80.8279 84.9825 80.7586 85.0082 80.6789 85.0061C80.5995 85.0003 80.5326 84.9682 80.4787 84.9088C80.4229 84.8477 80.3971 84.778 80.4007 84.7004C80.4046 84.6189 80.4361 84.5513 80.4955 84.4973C80.553 84.4451 80.6213 84.4219 80.701 84.4273C80.779 84.4308 80.8455 84.4634 80.9012 84.5245C80.9552 84.5839 80.9809 84.6532 80.9792 84.7333C80.9756 84.8112 80.9448 84.8763 80.8873 84.9285ZM81.0063 85.3889L81.3234 85.1008L83.0548 87.0056L82.7377 87.2937L81.0063 85.3889Z" fill="white"/>
<path d="M82.8928 83.4813C83.1138 83.2593 83.3605 83.1463 83.6332 83.142C83.9042 83.1395 84.1659 83.2639 84.4179 83.5149L85.494 84.5859L85.1973 84.8841L84.1638 83.8556C83.9825 83.6754 83.7973 83.5828 83.6078 83.5778C83.4219 83.5728 83.2503 83.6497 83.093 83.8077C82.934 83.9675 82.8575 84.1441 82.8628 84.3371C82.8703 84.532 82.969 84.7239 83.1592 84.9127L84.1688 85.9176L83.8667 86.2212L82.042 84.4054L82.3444 84.1019L82.6026 84.3589C82.5704 84.2066 82.5797 84.0533 82.6308 83.8992C82.6819 83.7451 82.7691 83.6057 82.8928 83.4813Z" fill="white"/>
<path d="M87.0071 82.9118C86.8505 83.0945 86.6668 83.2239 86.4558 83.3004C86.2467 83.3787 86.0286 83.3944 85.8013 83.3476C85.5753 83.299 85.3619 83.1885 85.1603 83.0158C84.9608 82.8446 84.8206 82.6501 84.7402 82.4324C84.663 82.2143 84.6483 81.9952 84.6952 81.775C84.7402 81.5529 84.8421 81.3499 85.0005 81.1651C85.1603 80.9788 85.3458 80.8472 85.5564 80.7711C85.7669 80.691 85.9857 80.6724 86.2131 80.7153C86.4401 80.7582 86.6546 80.8662 86.8562 81.0392C87.0579 81.2122 87.1973 81.4092 87.2745 81.6309C87.3517 81.8525 87.366 82.0742 87.3171 82.2965C87.2702 82.5203 87.1669 82.7255 87.0071 82.9118ZM86.7218 82.6673C86.8212 82.5514 86.8877 82.4185 86.9206 82.2683C86.9553 82.1199 86.9445 81.9673 86.8884 81.8096C86.8337 81.6538 86.7275 81.5083 86.5699 81.3731C86.414 81.2394 86.2549 81.1558 86.0923 81.1218C85.93 81.0914 85.7791 81.1021 85.639 81.1536C85.4992 81.2087 85.3798 81.2941 85.28 81.4103C85.1774 81.5301 85.1102 81.6623 85.0787 81.8068C85.0509 81.9512 85.0648 82.0999 85.1209 82.254C85.1806 82.4077 85.2886 82.5511 85.4441 82.6848C85.6039 82.8217 85.763 82.9075 85.9221 82.9415C86.0812 82.979 86.2299 82.9711 86.3682 82.9179C86.5048 82.8668 86.6228 82.7831 86.7218 82.6673Z" fill="white"/>
<path d="M88.2597 79.1787C88.0434 79.0293 87.8825 78.8541 87.7778 78.6536C87.6763 78.4523 87.6326 78.2442 87.6473 78.029C87.6634 77.8116 87.7363 77.6093 87.8661 77.422C87.9944 77.2364 88.1457 77.1034 88.3198 77.023C88.4942 76.9426 88.6655 76.9104 88.8342 76.9265L88.4477 76.6594L88.6937 76.3037L90.8112 77.7673L90.5652 78.1227L90.1698 77.8492C90.2449 78.0047 90.276 78.1799 90.2631 78.3751C90.2481 78.5688 90.178 78.7562 90.0526 78.9378C89.9214 79.1272 89.7576 79.2652 89.561 79.3514C89.3629 79.4397 89.1499 79.4708 88.9214 79.444C88.6948 79.415 88.4742 79.3267 88.2597 79.1787ZM89.502 77.388C89.3433 77.2783 89.182 77.2143 89.0183 77.1953C88.8553 77.1799 88.7041 77.205 88.5646 77.27C88.4252 77.3351 88.3101 77.4338 88.2189 77.5653C88.1292 77.6951 88.0774 77.836 88.0638 77.9883C88.0516 78.138 88.0824 78.2875 88.1564 78.4358C88.2297 78.581 88.3466 78.709 88.5078 78.8202C88.6705 78.9328 88.8338 78.9982 88.9972 79.0168C89.1624 79.0336 89.314 79.0103 89.452 78.9474C89.5892 78.8809 89.7029 78.7826 89.7927 78.6528C89.8838 78.5209 89.9364 78.379 89.9496 78.2271C89.961 78.0737 89.9299 77.9228 89.8563 77.7741C89.7809 77.6275 89.6629 77.4988 89.502 77.388Z" fill="white"/>
<path d="M91.0338 74.8973C90.8007 74.7704 90.6213 74.6127 90.4954 74.4247C90.3732 74.2356 90.3085 74.0318 90.3017 73.8141C90.2959 73.5942 90.3517 73.3765 90.469 73.1609C90.6198 72.8839 90.8129 72.6919 91.0474 72.5857C91.2798 72.4785 91.5315 72.4613 91.8025 72.535L91.5815 72.9407C91.4224 72.9025 91.273 72.9182 91.1325 72.9872C90.9934 73.054 90.879 73.1699 90.7893 73.335C90.672 73.5506 90.6509 73.7648 90.7264 73.9771C90.8018 74.1895 90.9738 74.3686 91.2423 74.5148C91.515 74.6635 91.761 74.7118 91.9801 74.6599C92.2018 74.6095 92.3712 74.4762 92.4885 74.2606C92.5782 74.0954 92.6147 73.9371 92.5979 73.7855C92.5807 73.6336 92.5114 73.4988 92.3902 73.3812L92.6111 72.9754C92.8099 73.1606 92.9286 73.3822 92.9679 73.6403C93.0072 73.8985 92.9529 74.1627 92.8056 74.4333C92.6883 74.6489 92.5357 74.814 92.3476 74.9284C92.1632 75.0417 91.9573 75.0979 91.7295 75.0968C91.5032 75.0932 91.2712 75.0271 91.0338 74.8973Z" fill="white"/>
<path d="M92.5204 72.0777C92.2812 71.9683 92.0924 71.8239 91.9541 71.6448C91.8189 71.4646 91.7399 71.2669 91.7171 71.0524C91.6953 70.8358 91.7317 70.6238 91.8265 70.4164C91.9205 70.2116 92.0463 70.0543 92.204 69.9445C92.3616 69.8348 92.525 69.7733 92.6937 69.7597L92.2665 69.5642L92.4467 69.1713L94.7869 70.2434L94.6067 70.6363L94.1695 70.4357C94.2707 70.5759 94.3318 70.7428 94.3533 70.9373C94.3722 71.1307 94.3357 71.3274 94.2439 71.5279C94.1481 71.7374 94.0104 71.9019 93.8317 72.0213C93.6519 72.1428 93.4474 72.2104 93.2182 72.224C92.9898 72.235 92.7574 72.1864 92.5204 72.0777ZM93.4316 70.0979C93.2561 70.0175 93.0863 69.9824 92.9218 69.9924C92.7585 70.006 92.614 70.0568 92.4882 70.1451C92.3624 70.2334 92.2658 70.3507 92.1993 70.4965C92.1335 70.6399 92.1071 70.7879 92.1203 70.9395C92.1343 71.0893 92.1908 71.2308 92.2894 71.3642C92.387 71.4943 92.5243 71.6001 92.702 71.6816C92.8818 71.7642 93.0541 71.8003 93.2186 71.79C93.3841 71.7774 93.5292 71.7285 93.654 71.6423C93.7777 71.5529 93.8724 71.4364 93.9382 71.293C94.0051 71.1472 94.0319 70.9985 94.0187 70.8462C94.0033 70.6931 93.9464 70.5498 93.8478 70.4164C93.748 70.2852 93.6093 70.1791 93.4316 70.0979Z" fill="white"/>
<path d="M95.57 68.3376C95.4999 68.5228 95.4059 68.6758 95.2876 68.7974C95.1685 68.921 95.0366 69.0036 94.8922 69.0455C94.7477 69.0873 94.6012 69.0851 94.4524 69.0397L94.6083 68.6286C94.7324 68.6622 94.8507 68.6426 94.9637 68.5703C95.0798 68.4967 95.1692 68.3776 95.2314 68.2136C95.289 68.0613 95.3004 67.929 95.265 67.8164C95.2307 67.7016 95.1631 67.6251 95.0627 67.5872C94.9572 67.5472 94.8611 67.5643 94.7738 67.6387C94.687 67.7131 94.5815 67.8392 94.4578 68.0173C94.3434 68.1774 94.2401 68.3058 94.1475 68.402C94.0556 68.4956 93.948 68.565 93.824 68.6089C93.6978 68.6522 93.5573 68.6447 93.4028 68.5861C93.2788 68.5392 93.1801 68.4602 93.1068 68.3494C93.0314 68.2379 92.9888 68.1024 92.9792 67.9436C92.9688 67.7871 92.9963 67.6219 93.0621 67.4485C93.1633 67.1815 93.3127 66.9916 93.5104 66.879C93.7085 66.7664 93.9269 66.7485 94.1657 66.8257L94.0138 67.2265C93.8837 67.1879 93.7628 67.1997 93.6509 67.2619C93.5405 67.3273 93.4561 67.4371 93.3975 67.5919C93.3435 67.7349 93.331 67.86 93.3599 67.9672C93.3882 68.077 93.4525 68.151 93.553 68.1889C93.6327 68.2189 93.7067 68.2175 93.7757 68.185C93.8468 68.1528 93.9123 68.1042 93.972 68.038C94.0342 67.973 94.11 67.8786 94.1997 67.7549C94.3123 67.5994 94.411 67.476 94.4964 67.3849C94.584 67.2948 94.6873 67.2269 94.8067 67.1807C94.9272 67.1378 95.062 67.1436 95.2103 67.1972C95.3415 67.2469 95.4459 67.328 95.5239 67.4403C95.6011 67.555 95.6451 67.6898 95.6565 67.8443C95.6644 68.0001 95.6358 68.1646 95.57 68.3376Z" fill="white"/>
<path d="M94.8928 66.2451C94.6411 66.1682 94.4348 66.0503 94.2739 65.8912C94.1163 65.7303 94.0115 65.5451 93.9604 65.3356C93.91 65.1236 93.9179 64.9088 93.9844 64.6907C94.0501 64.4751 94.1538 64.3025 94.2957 64.173C94.4373 64.0433 94.591 63.9607 94.7566 63.9246L94.3072 63.7873L94.4334 63.374L96.8951 64.1258L96.7689 64.5391L96.3088 64.3986C96.4279 64.5241 96.5105 64.6814 96.5577 64.8712C96.602 65.0603 96.592 65.2602 96.5276 65.4711C96.4604 65.6917 96.346 65.8726 96.1848 66.0149C96.0228 66.1593 95.8291 66.2533 95.6038 66.2969C95.379 66.3384 95.1419 66.3209 94.8928 66.2451ZM95.5327 64.1616C95.3482 64.1051 95.1752 64.093 95.0136 64.1248C94.8538 64.1598 94.7172 64.2295 94.6039 64.3339C94.4909 64.4383 94.4109 64.567 94.364 64.7204C94.3179 64.8712 94.3115 65.0214 94.3447 65.1701C94.3787 65.3167 94.4534 65.4493 94.5689 65.5684C94.6829 65.6842 94.8331 65.7707 95.02 65.8279C95.2092 65.8858 95.3847 65.8987 95.5463 65.8669C95.7086 65.8326 95.8459 65.7646 95.9585 65.6627C96.069 65.5576 96.1476 65.4297 96.1934 65.2788C96.2402 65.1254 96.247 64.9742 96.2141 64.8255C96.1787 64.6757 96.1029 64.5413 95.9874 64.4222C95.8713 64.3057 95.7197 64.2188 95.5327 64.1616Z" fill="white"/>
</g>
</g>
</g>
<g clip-path="url(#clip7_94_894)">
<path d="M42.3786 44.1667C43.601 43.6098 44.8654 43.0348 46.1941 42.6651C47.4989 42.3022 50.1932 41.5486 49.6989 39.3212C51.0464 39.2581 53.9489 39.1471 56.3663 39.2251C58.0567 39.2802 62.0962 39.2205 63.1217 37.4806C63.3839 37.0358 63.566 36.2873 62.9448 35.2464C62.4614 34.4353 61.6691 34.3989 61.0906 34.3727C60.4075 34.342 59.7318 34.3358 58.9269 34.3358C57.9617 34.3358 56.9686 34.2015 56.0073 34.0713L55.8288 34.0474C53.7794 33.771 51.6544 33.4126 49.5124 32.9815C48.6825 32.8148 47.8555 32.6067 47.0552 32.4059C44.6356 31.7978 42.1312 31.1699 39.3965 31.6579C37.8511 31.9338 36.4035 32.5242 35.0032 33.0952L34.3479 33.3614C33.1478 33.8438 31.901 34.2891 30.6963 34.7197C30.2276 34.8869 29.7595 35.0541 29.2926 35.2236C28.9974 35.3311 28.8449 35.6576 28.9524 35.9528C29.0599 36.248 29.3858 36.401 29.6816 36.293C30.1463 36.124 30.6127 35.9574 31.0791 35.7907C32.2946 35.3567 33.5516 34.908 34.7723 34.4171L35.4326 34.1486C36.7784 33.5998 38.1696 33.0327 39.5967 32.7779C42.0937 32.3314 44.3694 32.9036 46.7782 33.5088C47.591 33.7129 48.4311 33.924 49.2877 34.0969C51.4542 34.5326 53.6037 34.8955 55.6769 35.1747L55.8555 35.1986C56.8531 35.3334 57.8855 35.4728 58.9269 35.4733C59.7164 35.4733 60.3773 35.4796 61.0383 35.5092C61.627 35.5359 61.8204 35.5814 61.9682 35.8294C62.3738 36.5097 62.1992 36.8054 62.1417 36.9027C61.5957 37.8281 58.7836 38.1671 56.4032 38.0881C53.6338 37.9971 50.2546 38.1523 49.2081 38.2064C48.4078 37.1234 47.0205 37.0756 46.2902 37.2485L37.6162 38.563C37.3056 38.6102 37.0923 38.9003 37.139 39.2103C37.1862 39.5208 37.4774 39.7358 37.7868 39.6875L46.5029 38.3651C46.677 38.3264 48.2093 38.0272 48.5835 39.5259C48.8344 40.5299 47.6877 41.0691 45.8568 41.5781C44.4741 41.9626 43.1687 42.557 41.9071 43.1315C41.2815 43.4159 40.6347 43.7111 39.9943 43.9716C39.1195 44.3282 38.1036 44.7201 37.1145 44.8617C35.4207 45.1035 33.6398 45.0227 31.9169 44.9436C31.1383 44.9078 30.3329 44.8714 29.5423 44.8646C29.2101 44.8504 28.9712 45.1143 28.9689 45.4283C28.9666 45.7422 29.2186 45.9993 29.5326 46.0022C30.3022 46.009 31.0968 46.0448 31.8646 46.0801C32.7405 46.1199 33.6313 46.1608 34.5254 46.1608C35.4429 46.1608 36.3637 46.1182 37.2755 45.9874C38.3926 45.8281 39.4864 45.4066 40.4237 45.025C41.0852 44.7554 41.7427 44.4562 42.3786 44.1667Z" fill="#002A48"/>
<path d="M70.1544 68.8162L69.8723 67.4438C68.6892 61.6928 67.038 55.956 65.5825 51.0303C65.4147 50.4621 65.248 49.8938 65.0831 49.3251C65.0245 49.1237 64.8601 48.9707 64.6548 48.9269C64.4483 48.8831 64.2373 48.9559 64.1019 49.1163L61.2995 52.4363C60.9736 51.214 60.704 50.2186 60.5328 49.6185C59.4947 45.9846 57.0854 45.9357 56.983 45.9357C56.983 45.9357 53.6499 45.9254 51.6813 45.9254C49.4551 45.9254 48.036 47.7802 47.9683 47.8707L45.7995 50.9154L38.4747 52.2128C38.1868 52.264 37.9844 52.5251 38.0065 52.8163C38.0173 52.9539 38.027 53.1354 38.039 53.3509C38.2147 56.5259 38.6129 59.5445 40.3221 60.1252C41.9317 60.6724 43.6347 60.8231 45.2808 60.9693C45.6237 60.9994 45.9667 61.0296 46.308 61.0637C46.4445 62.5687 46.8853 67.2248 47.2732 68.9317C47.3329 69.1956 47.5679 69.3742 47.8272 69.3748C47.8687 69.3748 47.9114 69.3702 47.9541 69.3606C48.2606 69.2906 48.4523 68.9863 48.3824 68.6797C47.9438 66.7498 47.4052 60.5603 47.3995 60.4977C47.3762 60.2276 47.1652 60.0114 46.8961 59.9813C46.3944 59.9255 45.8882 59.8806 45.3814 59.8362C43.8019 59.6963 42.1684 59.5518 40.6878 59.0479C39.8801 58.7732 39.3711 56.8353 39.1748 53.2878C39.1743 53.273 39.1731 53.2588 39.1726 53.2446L46.2267 51.9949C46.3734 51.9688 46.5042 51.8863 46.5912 51.7652L48.8863 48.5424C48.8977 48.5276 50.017 47.063 51.6813 47.063C53.6374 47.063 56.942 47.0732 56.971 47.0732C57.0393 47.0755 58.6484 47.1637 59.439 49.9314C59.6204 50.5673 59.9151 51.6554 60.2683 52.9846L57.1371 53.4362C55.652 53.5989 54.9951 54.7826 54.4155 55.8269C54.2505 56.1243 54.0947 56.4053 53.9252 56.655C53.8734 56.7312 53.8165 56.8302 53.7551 56.9388C53.6778 57.0753 53.5168 57.3597 53.4616 57.4035C53.4286 57.4126 53.3973 57.4252 53.3666 57.4399C53.3166 57.4644 52.1318 58.0406 51.3122 58.5866C51.1415 58.7004 51.0454 58.8972 51.0608 59.1019C51.0733 59.2743 51.4106 63.3326 54.5577 63.7472C56.4187 63.9924 57.7429 64.0566 58.4277 64.072L58.9095 69.3082C58.9362 69.6034 59.1842 69.8247 59.4754 69.8247C59.4925 69.8247 59.5107 69.8241 59.5283 69.8224C59.8411 69.794 60.0715 69.517 60.0419 69.2036L59.5129 63.4537C59.4856 63.1557 59.2268 62.9293 58.9328 62.9378C58.9169 62.9378 57.3675 62.9697 54.7061 62.6193C52.9014 62.3821 52.3747 60.1895 52.2382 59.3454C52.8843 58.9495 53.6579 58.5639 53.8285 58.4803C54.279 58.3216 54.5469 57.8489 54.7442 57.5002C54.7892 57.4212 54.829 57.3489 54.8665 57.2932C55.0645 57.0014 55.2402 56.6852 55.4097 56.3786C56.0018 55.3127 56.421 54.6591 57.2799 54.5647L60.5618 54.0915L61.2921 53.9863C61.4303 53.9664 61.556 53.8964 61.6453 53.7906L61.6556 53.7787L64.2879 50.66C64.3556 50.8909 64.4239 51.1219 64.4915 51.3522C65.9402 56.2557 67.584 61.9652 68.758 67.673L69.0401 69.0449C69.1033 69.3526 69.403 69.5517 69.7113 69.488C70.019 69.4249 70.2175 69.124 70.1544 68.8162Z" fill="#002A48"/>
</g>
</g>
</g>
<defs>
<clipPath id="clip0_94_894">
<rect width="100" height="100" fill="white"/>
</clipPath>
<clipPath id="clip1_94_894">
<rect width="100" height="100" fill="white"/>
</clipPath>
<clipPath id="clip2_94_894">
<rect width="100" height="100" fill="white"/>
</clipPath>
<clipPath id="clip3_94_894">
<rect width="100" height="100" fill="white"/>
</clipPath>
<clipPath id="clip4_94_894">
<rect width="100" height="100" fill="white"/>
</clipPath>
<clipPath id="clip5_94_894">
<rect width="58.9256" height="58.9256" fill="white" transform="translate(20.5371 20.5372)"/>
</clipPath>
<clipPath id="clip6_94_894">
<rect width="41.2479" height="41.2479" fill="white" transform="translate(29.376 29.376)"/>
</clipPath>
<clipPath id="clip7_94_894">
<rect width="41.2479" height="41.2479" fill="white" transform="translate(28.918 30.03)"/>
</clipPath>
</defs>
</svg>
